<?xml version="1.0" encoding="UTF-8"?>
<svg id="_レイヤー_2" data-name="レイヤー 2" xmlns="http://www.w3.org/2000/svg" width="312" height="60" xmlns:xlink="http://www.w3.org/1999/xlink" viewBox="0 0 312 60">
  <defs>
    <style>
      .cls-1 {
        fill: url(#_名称未設定グラデーション);
      }

      .cls-1, .cls-2, .cls-3 {
        stroke-width: 0px;
      }

      .cls-2 {
        fill: #fff;
      }

      .cls-3 {
        fill: url(#_名称未設定グラデーション-2);
      }
    </style>
    <linearGradient id="_名称未設定グラデーション" data-name="名称未設定グラデーション" x1="6.58" y1="-210.1" x2="294.84" y2="-332.97" gradientTransform="translate(0 -243.79) scale(1 -1)" gradientUnits="userSpaceOnUse">
      <stop offset="0" stop-color="#ffac0a"/>
      <stop offset="1" stop-color="#f96a1a"/>
    </linearGradient>
    <linearGradient id="_名称未設定グラデーション-2" data-name="名称未設定グラデーション" x1="26.91" y1="-270" x2="59.97" y2="-277.89" xlink:href="#_名称未設定グラデーション"/>
  </defs>
  <g id="_レイヤー_1-2" data-name="レイヤー 1">
    <g>
      <rect class="cls-1" width="312" height="60" rx="6" ry="6"/>
      <path class="cls-2" d="M110.96,22.42h1.95v13.2c0,.94-.24,1.33-.85,1.6-.62.24-1.49.27-2.85.27-.1-.45-.4-1.12-.64-1.5.77.03,1.71.02,1.98.02.3-.02.4-.11.4-.38v-13.2ZM104.96,23.46h14.08v1.52h-14.08v-1.52ZM108.43,26.83v.77h7.07v-.77h-7.07ZM106.61,25.62h10.86v3.2h-10.86v-3.2ZM106.21,29.52h11.54v6.26h-1.95v-4.94h-9.58v-1.31ZM104.59,31.5h14.82v1.46h-14.82v-1.46ZM106.08,33.71h10.75v1.39h-10.75v-1.39ZM122.32,24.78h14.56v1.74h-14.56v-1.74ZM124.21,30.24h4.16v1.41h-4.16v-1.41ZM124.21,32.69h4.16v1.42h-4.16v-1.42ZM130.91,27.79h1.78v6.56h-1.78v-6.56ZM127.7,27.63h1.86v7.92c0,.82-.16,1.26-.7,1.54-.53.29-1.26.3-2.26.3-.1-.48-.37-1.18-.61-1.63.59.03,1.25.03,1.44.02.21,0,.27-.06.27-.26v-7.89ZM134.13,27.36h1.89v7.98c0,.93-.18,1.42-.82,1.71-.61.29-1.47.35-2.66.34-.1-.51-.4-1.33-.67-1.82.82.05,1.65.05,1.92.03.26,0,.34-.06.34-.29v-7.95ZM124.53,23.04l1.82-.64c.58.62,1.22,1.47,1.49,2.08l-1.94.69c-.22-.58-.82-1.49-1.38-2.13ZM132.74,22.37l2.1.62c-.66,1.02-1.36,2.05-1.92,2.75l-1.73-.59c.54-.75,1.2-1.92,1.55-2.78ZM123.2,27.63h5.04v1.6h-3.23v8.11h-1.81v-9.71ZM144.26,26.69h5.92v1.6h-5.92v-1.6ZM140.32,35.55h13.82v1.57h-13.82v-1.57ZM141.25,23.01h4.48v1.55h-4.48v-1.55ZM145.12,23.01h.32l.34-.08,1.25.62c-1.18,3.14-3.71,5.42-6.4,6.72-.26-.4-.77-1.06-1.15-1.39,2.38-1.01,4.77-3.18,5.65-5.55v-.32ZM148.77,22.46c1.1,2.61,3.34,4.93,6.13,5.98-.45.38-1.01,1.1-1.3,1.6-2.94-1.34-5.14-3.9-6.46-7.07l1.63-.51ZM140.48,25.89l1.02-1.06c.72.4,1.6,1.02,2.02,1.5l-1.07,1.17c-.42-.48-1.28-1.17-1.97-1.62ZM151.23,22.56l1.44,1.02c-.88.75-1.92,1.54-2.72,2.05l-1.15-.9c.77-.54,1.82-1.47,2.43-2.18ZM153.04,24.43l1.41.99c-.91.8-2.02,1.63-2.86,2.16l-1.15-.9c.83-.58,1.95-1.52,2.61-2.26ZM144.4,30.74v1.41h5.47v-1.41h-5.47ZM142.53,29.2h9.33v4.46h-9.33v-4.46ZM143.46,33.87l1.76-.45c.42.58.77,1.39.91,1.94l-1.84.53c-.11-.54-.46-1.39-.83-2.02ZM149.17,33.41l1.86.4c-.4.78-.77,1.5-1.09,2.02l-1.68-.38c.32-.56.72-1.42.91-2.03ZM170.82,29.62l1.5.91c-.67.74-1.38,1.5-1.95,2.02l-1.2-.8c.53-.56,1.25-1.47,1.65-2.13ZM163.7,30.66l1.25-.82c.66.59,1.36,1.42,1.66,2.03l-1.34.9c-.26-.61-.94-1.49-1.57-2.11ZM164.38,22.96h6.61v5.62h-1.78v-4.05h-4.83v-1.57ZM164.74,25.38h5.49v1.47h-5.49v-1.47ZM163.62,27.66h8.58v1.63h-8.58v-1.63ZM166.91,28.5h1.78v7.14c0,.78-.1,1.25-.61,1.52-.48.27-1.12.29-2,.29-.05-.48-.26-1.17-.46-1.65.45.02.93.02,1.09.02s.21-.05.21-.22v-7.09ZM163.15,34.82c.82-.46,2.02-1.22,3.2-1.98l.58,1.44c-.94.72-1.98,1.47-2.9,2.08l-.88-1.54ZM168.64,29.63c.51,1.9,1.73,4.29,3.92,5.41-.38.34-.96,1.09-1.23,1.57-2.1-1.34-3.25-4.1-3.74-5.95l1.06-1.02ZM158.4,26.4h4.74v1.6h-4.74v-1.6ZM157.63,29.17h5.84v1.63h-5.84v-1.63ZM157.79,31.7l1.22-.3c.27.9.5,2.02.58,2.78l-1.3.34c-.03-.77-.26-1.92-.5-2.82ZM157.46,35.36c1.52-.22,3.79-.64,5.95-1.02l.14,1.58c-2,.42-4.11.86-5.73,1.18l-.37-1.74ZM162.22,31.26l1.38.34c-.29.91-.54,1.92-.78,2.59l-1.15-.32c.21-.72.45-1.84.56-2.61ZM159.82,27.04h1.65v8.62l-1.65.29v-8.91ZM159.74,22.42h1.01v.35h.54v.5c-.62,1.22-1.6,2.86-3.18,4.3-.26-.38-.8-.99-1.15-1.25,1.34-1.15,2.29-2.66,2.78-3.9ZM159.98,22.42h1.34c.93.8,2.11,1.95,2.69,2.77l-1.23,1.47c-.51-.82-1.6-2.16-2.46-2.88h-.34v-1.36ZM184.85,23.1c-.05.27-.1,1.12-.11,1.38-.05,1.06-.02,4.32,0,5.6l-2-.67c0-.99,0-4.06-.06-4.91-.05-.64-.11-1.18-.14-1.39h2.32ZM175.79,25.1c2.38,0,6.61-.13,8.61-.13,1.63,0,4.06-.02,4.96,0l-.03,1.89c-.99-.05-2.62-.1-4.98-.1-2.91,0-6.1.13-8.51.26l-.05-1.92ZM184.46,29.84c0,2.61-.96,3.9-2.8,3.9-1.23,0-2.77-.98-2.77-2.93,0-1.81,1.47-2.99,3.2-2.99,2.11,0,3.22,1.55,3.22,3.54,0,2.1-1.23,4.74-5.14,5.84l-1.7-1.7c2.72-.59,4.85-1.66,4.85-4.46,0-1.04-.56-1.54-1.26-1.54-.62,0-1.25.43-1.25,1.28,0,.72.59,1.18,1.25,1.18.75,0,1.41-.64.9-2.54l1.5.42ZM195.52,23.82c.45.05.99.08,1.44.08.86,0,4.27-.08,5.18-.16.67-.05,1.04-.11,1.23-.18l1.02,1.44c-.37.24-.75.46-1.1.74-.86.61-2.54,2.02-3.57,2.82.54-.14,1.02-.18,1.52-.18,2.72,0,4.78,1.7,4.78,4.02,0,2.53-1.92,4.53-5.79,4.53-2.22,0-3.9-1.01-3.9-2.62,0-1.3,1.18-2.48,2.88-2.48,2.19,0,3.41,1.47,3.46,3.23l-1.87.24c-.03-1.15-.64-1.95-1.58-1.95-.59,0-.99.37-.99.78,0,.59.66.99,1.63.99,2.7,0,4.08-1.02,4.08-2.74,0-1.46-1.44-2.43-3.31-2.43-2.46,0-4.05,1.31-5.76,3.25l-1.46-1.5c1.14-.9,3.07-2.53,4-3.31.9-.74,2.58-2.08,3.36-2.78-.82.03-3.02.11-3.89.18-.43.03-.93.06-1.3.13l-.06-2.08Z"/>
      <circle class="cls-2" cx="44" cy="30" r="24"/>
      <path class="cls-3" d="M31.77,23.26l1.77.51c-.82,1.67-2.16,3.28-3.42,4.27-.33-.33-1.05-.9-1.47-1.17,1.26-.84,2.46-2.22,3.12-3.61ZM31.66,24.84h10.34v1.59h-10.77l.44-1.59ZM28.97,28.33h13.56v1.61h-13.56v-1.61ZM29.23,31.86h13.09v1.6h-13.09v-1.6ZM33.67,25.41h1.51v7.29h-1.51v-7.29ZM31.01,25.41h1.59v7.31h-1.59v-7.31ZM36.28,25.41h1.5v7.31h-1.5v-7.31ZM38.92,25.41h1.65v7.31h-1.65v-7.31ZM33.22,34.31l1.67-.19c.19.92.38,2.1.39,2.83l-1.77.26c0-.74-.1-1.97-.28-2.9ZM36.2,34.33l1.69-.28c.38.89.75,2.07.88,2.81l-1.8.36c-.1-.74-.44-1.95-.78-2.88ZM39.19,34.26l1.72-.54c.67.91,1.53,2.19,1.9,3.03l-1.83.62c-.33-.83-1.12-2.15-1.8-3.11ZM30.51,33.78l1.76.42c-.35,1.15-.99,2.38-1.71,3.17l-1.74-.69c.69-.63,1.35-1.8,1.69-2.9ZM47.58,23.34h1.67v13.98h-1.67v-13.98ZM45.32,28.26h6.15v1.68h-6.15v-1.68ZM47.27,29.16l.99.48c-.48,2.01-1.41,4.62-2.4,6.06-.17-.56-.56-1.35-.83-1.86.9-1.11,1.81-3.19,2.24-4.68ZM49.22,30.03c.43.39,1.89,2.13,2.22,2.55l-1.11,1.41c-.39-.86-1.4-2.52-1.94-3.26l.83-.7ZM45.29,24.5l1.26-.33c.39,1.09.69,2.52.76,3.46l-1.35.36c-.03-.94-.31-2.4-.67-3.49ZM50.24,24.09l1.51.33c-.39,1.22-.84,2.64-1.22,3.52l-1.12-.32c.3-.96.66-2.47.83-3.54ZM55.91,23.25h1.69v14.08h-1.69v-14.08ZM51.42,32.64l7.71-1.38.27,1.66-7.69,1.4-.28-1.68ZM52.28,25.31l.89-1.23c.84.51,1.9,1.26,2.4,1.81l-.94,1.36c-.45-.58-1.5-1.41-2.34-1.95ZM51.6,29.08l.84-1.29c.87.47,1.99,1.18,2.53,1.74l-.9,1.42c-.51-.55-1.61-1.36-2.48-1.88Z"/>
      <path class="cls-2" d="M293.5,29.13c.67.38.67,1.35,0,1.73l-10.5,6.06c-.67.38-1.5-.1-1.5-.87v-12.12c0-.77.83-1.25,1.5-.87l10.5,6.06Z"/>
    </g>
  </g>
</svg>