<?xml version="1.0" encoding="UTF-8"?>
<svg id="_レイヤー_2" data-name="レイヤー 2" xmlns="http://www.w3.org/2000/svg" width="180" height="40" xmlns:xlink="http://www.w3.org/1999/xlink" viewBox="0 0 180 40">
  <defs>
    <style>
      .cls-1 {
        fill: url(#_名称未設定グラデーション);
      }

      .cls-1, .cls-2, .cls-3 {
        stroke-width: 0px;
      }

      .cls-2 {
        fill: #fff;
      }

      .cls-3 {
        fill: url(#_名称未設定グラデーション-2);
      }
    </style>
    <linearGradient id="_名称未設定グラデーション" data-name="名称未設定グラデーション" x1=".33" y1="222.61" x2="173.31" y2="158.8" gradientTransform="translate(0 209.53) scale(1 -1)" gradientUnits="userSpaceOnUse">
      <stop offset="0" stop-color="#ffac0a"/>
      <stop offset="1" stop-color="#f96a1a"/>
    </linearGradient>
    <linearGradient id="_名称未設定グラデーション-2" data-name="名称未設定グラデーション" x1="160.1" y1="195.1" x2="159.21" y2="184.26" xlink:href="#_名称未設定グラデーション"/>
  </defs>
  <g id="_レイヤー_1-2" data-name="レイヤー 1">
    <g>
      <path class="cls-1" d="M20,0h140c11.05,0,20,8.95,20,20h0c0,11.05-8.95,20-20,20H20C8.95,40,0,31.05,0,20h0C0,8.95,8.95,0,20,0Z"/>
      <path class="cls-2" d="M53.32,22.98v-.66h-2.52v.66h2.52ZM50.8,20.45v.6h2.52v-.6h-2.52ZM46.91,17.66h2.2v-.67h-2.2v.67ZM53.07,16.99h-2.27v.67h2.27v-.67ZM56.47,21.05v1.27h-1.46v2.44h-1.69v-.57h-2.52v.43c0,.83-.2,1.16-.74,1.4-.53.21-1.29.24-2.48.24-.08-.39-.34-.97-.55-1.32.67.03,1.5.03,1.72.03.27-.01.35-.1.35-.35v-.43h-4.26v-1.2h4.26v-.66h-5.54v-1.27h5.54v-.6h-4.14v-1.12h4.14v-.62h-3.79v-2.77h3.79v-.57h-5.22v-1.32h5.22v-.91h1.69v.91h5.35v1.32h-5.35v.57h3.98v2.77h-3.98v.62h4.21v1.72h1.46ZM61.41,22.09h2.34v-.91h-2.34v.91ZM63.75,19.08h-2.34v.87h2.34v-.87ZM65.36,17.68v6.89c0,.71-.14,1.11-.62,1.34-.45.24-1.09.27-1.95.27-.08-.42-.32-1.04-.53-1.41.52.03,1.08.03,1.26.01.17,0,.22-.06.22-.22v-1.25h-2.34v2.83h-1.58v-8.46h5.53ZM69.35,24.36v-6.93h1.64v6.96c0,.83-.15,1.23-.71,1.5-.53.25-1.29.29-2.3.28-.08-.45-.35-1.13-.6-1.57.71.03,1.44.03,1.68.01.22,0,.29-.06.29-.25ZM68.09,17.82v5.71h-1.53v-5.71h1.53ZM68.89,15.21h2.84v1.5h-12.67v-1.5h2.98c-.25-.48-.66-1.08-1.05-1.54l1.58-.55c.5.53,1.06,1.29,1.3,1.82l-.77.27h3.89c.42-.64.87-1.47,1.15-2.11l1.81.53c-.34.55-.71,1.09-1.06,1.58ZM82.45,22.93h-3.25c.31.48.56,1.06.67,1.48l-.53.15h2.76l-.38-.08c.24-.42.53-1.05.73-1.55ZM78.36,20.37v1.25h4.77v-1.25h-4.77ZM83.6,22.93l.55.11c-.29.57-.57,1.12-.81,1.53h3.51v1.37h-12.04v-1.37h3.39c-.14-.46-.38-1.02-.64-1.46l.73-.18h-1.53v-3.88h8.11v3.88h-1.26ZM85.88,14.89l1.22.87c-.56.49-1.2,1.01-1.81,1.43.67.49,1.41.91,2.2,1.22-.38.31-.85.95-1.11,1.39-1.12-.5-2.13-1.23-3-2.11v.57h-5.15v-.48c-.95.92-2.04,1.67-3.16,2.21-.22-.36-.66-.94-.99-1.22.81-.34,1.62-.84,2.37-1.44-.39-.39-.99-.85-1.5-1.18l.91-.91c.53.31,1.19.74,1.58,1.13.41-.43.76-.91,1.05-1.39h-2.87v-1.34h3.67l.28-.07,1.08.56c-.38,1.02-.92,1.93-1.58,2.73h3.6c-.77-.95-1.41-2.04-1.92-3.23l1.43-.45c.21.49.45.97.74,1.41.52-.42,1.04-.91,1.4-1.33l1.26.9c-.6.5-1.3,1.04-1.92,1.46.21.25.43.49.66.71.57-.45,1.18-.99,1.57-1.44ZM91.36,16.61h2.95c-.39-.57-1.01-1.36-1.6-1.92-.35.6-.8,1.26-1.36,1.92ZM95,23.52l.03.28c.7-.41,1.62-.99,2.53-1.6l.5,1.26c-.83.63-1.72,1.27-2.52,1.82l-.46-.8.04.41c-1.74.36-3.58.76-5,1.02l-.31-1.51c.59-.08,1.29-.2,2.06-.32v-3.65h-1.9v-1.4h1.9v-1.02h-1.23v-.63c-.08.08-.18.17-.27.25-.21-.32-.67-.87-.99-1.08,1.18-.99,1.99-2.31,2.42-3.39h1.37c.83.69,1.85,1.68,2.34,2.41l-.88,1.05h.13v1.39h-1.44v1.02h1.74v1.4h-1.74v3.39l1.68-.29ZM101.06,21.96l-.66-.43c.59,1.04,1.43,2.02,2.56,2.6-.34.29-.83.94-1.06,1.37-.99-.64-1.75-1.65-2.3-2.7v1.83c0,.7-.1,1.09-.53,1.32-.43.24-.98.27-1.76.27-.04-.42-.21-1.01-.39-1.44.39.03.81.01.95.01.15,0,.2-.04.2-.18v-5.49h-2.88v-1.41h4.87v-.71h-3.89v-1.26h3.89v-.76h-4.2v-1.37h5.74v4.1h1.04v1.41h-3.02v.46c.14.48.32.99.57,1.5.43-.48.95-1.16,1.26-1.68l1.3.8c-.56.64-1.19,1.3-1.68,1.76ZM90.11,21.22l1.06-.27c.22.77.42,1.76.49,2.41l-1.12.31c-.03-.67-.22-1.68-.43-2.45ZM94.48,23.39l-1.01-.28c.18-.62.41-1.61.49-2.27l1.2.29c-.25.78-.48,1.68-.69,2.25ZM95.25,20.31l1.09-.7c.56.49,1.18,1.23,1.44,1.76l-1.16.77c-.24-.52-.84-1.29-1.37-1.83ZM113.74,13.72c-.03.22-.08.98-.1,1.2,0,.11,0,.27-.01.43,1.41,0,3.33-.03,4.06-.01v1.65c-.85-.04-2.16-.07-4.06-.07,0,.71.01,1.48.01,2.1.34.53.5,1.19.5,1.92,0,1.82-1.06,4.14-4.48,5.1l-1.5-1.48c1.41-.29,2.65-.76,3.42-1.6-.2.04-.41.07-.63.07-1.08,0-2.41-.87-2.41-2.58,0-1.58,1.27-2.62,2.8-2.62.2,0,.38.01.56.04,0-.31,0-.63-.01-.94-2.11.03-4.3.11-6.02.21l-.04-1.69c1.6,0,4.14-.06,6.05-.08-.01-.18-.01-.32-.03-.43-.04-.57-.1-1.05-.14-1.22h2.03ZM110.23,20.42c0,.64.52,1.05,1.08,1.05.59,0,1.11-.45.91-1.68-.2-.32-.53-.49-.91-.49-.55,0-1.08.38-1.08,1.12ZM125.46,23.35c0,.52.57.87,1.41.87.29,0,.56-.01.81-.04-.08-.91-.6-1.5-1.36-1.5-.53,0-.87.32-.87.67ZM123.08,14.33c.39.06.88.07,1.27.07.74,0,3.74-.06,4.54-.13.57-.06.9-.1,1.06-.15l.91,1.25c-.32.21-.66.41-.98.64-.76.53-2.23,1.76-3.11,2.46.46-.11.88-.15,1.33-.15,2.38,0,4.19,1.48,4.19,3.53,0,2.21-1.68,3.96-5.07,3.96-1.95,0-3.42-.9-3.42-2.3,0-1.13,1.02-2.18,2.51-2.18,1.74,0,2.79,1.06,2.98,2.39.77-.41,1.16-1.05,1.16-1.9,0-1.26-1.26-2.11-2.91-2.11-2.14,0-3.54,1.13-5.04,2.84l-1.27-1.32c.99-.8,2.69-2.23,3.51-2.91.78-.64,2.24-1.82,2.93-2.42-.71.01-2.65.1-3.39.14-.38.03-.83.07-1.15.11l-.06-1.82Z"/>
      <circle class="cls-2" cx="159" cy="20" r="9"/>
      <path class="cls-3" d="M162.5,19.13c.67.38.67,1.35,0,1.73l-4.5,2.6c-.67.38-1.5-.1-1.5-.87v-5.2c0-.77.83-1.25,1.5-.87l4.5,2.6Z"/>
    </g>
  </g>
</svg>