<?xml version="1.0" encoding="UTF-8"?>
<svg id="_レイヤー_2" data-name="レイヤー 2" xmlns="http://www.w3.org/2000/svg" width="240" height="60" xmlns:xlink="http://www.w3.org/1999/xlink" viewBox="0 0 240 60">
  <defs>
    <style>
      .cls-1 {
        fill: url(#_名称未設定グラデーション_2);
      }

      .cls-1, .cls-2, .cls-3 {
        stroke-width: 0px;
      }

      .cls-2 {
        fill: url(#_名称未設定グラデーション_2-2);
      }

      .cls-3 {
        fill: #fff;
      }
    </style>
    <linearGradient id="_名称未設定グラデーション_2" data-name="名称未設定グラデーション 2" x1="-2.64" y1="260.49" x2="233.95" y2="182.91" gradientTransform="translate(0 250.28) scale(1 -1)" gradientUnits="userSpaceOnUse">
      <stop offset="0" stop-color="#ffac0a"/>
      <stop offset="1" stop-color="#f96a1a"/>
    </linearGradient>
    <linearGradient id="_名称未設定グラデーション_2-2" data-name="名称未設定グラデーション 2" x1="211.41" y1="226.95" x2="210.34" y2="213.94" xlink:href="#_名称未設定グラデーション_2"/>
  </defs>
  <g id="_レイヤー_1-2" data-name="レイヤー 1">
    <g>
      <path class="cls-1" d="M30,0h180c16.57,0,30,13.43,30,30h0c0,16.57-13.43,30-30,30H30C13.43,60,0,46.57,0,30h0C0,13.43,13.43,0,30,0Z"/>
      <path class="cls-3" d="M62.7,21.02h2.44v16.5c0,1.18-.3,1.66-1.06,2-.78.3-1.86.34-3.56.34-.12-.56-.5-1.4-.8-1.88.96.04,2.14.02,2.48.02.38-.02.5-.14.5-.48v-16.5ZM55.2,22.32h17.6v1.9h-17.6v-1.9ZM59.54,26.54v.96h8.84v-.96h-8.84ZM57.26,25.02h13.58v4h-13.58v-4ZM56.76,29.9h14.42v7.82h-2.44v-6.18h-11.98v-1.64ZM54.74,32.38h18.52v1.82h-18.52v-1.82ZM56.6,35.14h13.44v1.74h-13.44v-1.74ZM76.9,23.98h18.2v2.18h-18.2v-2.18ZM79.26,30.8h5.2v1.76h-5.2v-1.76ZM79.26,33.86h5.2v1.78h-5.2v-1.78ZM87.64,27.74h2.22v8.2h-2.22v-8.2ZM83.62,27.54h2.32v9.9c0,1.02-.2,1.58-.88,1.92-.66.36-1.58.38-2.82.38-.12-.6-.46-1.48-.76-2.04.74.04,1.56.04,1.8.02.26,0,.34-.08.34-.32v-9.86ZM91.66,27.2h2.36v9.98c0,1.16-.22,1.78-1.02,2.14-.76.36-1.84.44-3.32.42-.12-.64-.5-1.66-.84-2.28,1.02.06,2.06.06,2.4.04.32,0,.42-.08.42-.36v-9.94ZM79.66,21.8l2.28-.8c.72.78,1.52,1.84,1.86,2.6l-2.42.86c-.28-.72-1.02-1.86-1.72-2.66ZM89.92,20.96l2.62.78c-.82,1.28-1.7,2.56-2.4,3.44l-2.16-.74c.68-.94,1.5-2.4,1.94-3.48ZM78,27.54h6.3v2h-4.04v10.14h-2.26v-12.14ZM104.32,26.36h7.4v2h-7.4v-2ZM99.4,37.44h17.28v1.96h-17.28v-1.96ZM100.56,21.76h5.6v1.94h-5.6v-1.94ZM105.4,21.76h.4l.42-.1,1.56.78c-1.48,3.92-4.64,6.78-8,8.4-.32-.5-.96-1.32-1.44-1.74,2.98-1.26,5.96-3.98,7.06-6.94v-.4ZM109.96,21.08c1.38,3.26,4.18,6.16,7.66,7.48-.56.48-1.26,1.38-1.62,2-3.68-1.68-6.42-4.88-8.08-8.84l2.04-.64ZM99.6,25.36l1.28-1.32c.9.5,2,1.28,2.52,1.88l-1.34,1.46c-.52-.6-1.6-1.46-2.46-2.02ZM113.04,21.2l1.8,1.28c-1.1.94-2.4,1.92-3.4,2.56l-1.44-1.12c.96-.68,2.28-1.84,3.04-2.72ZM115.3,23.54l1.76,1.24c-1.14,1-2.52,2.04-3.58,2.7l-1.44-1.12c1.04-.72,2.44-1.9,3.26-2.82ZM104.5,31.42v1.76h6.84v-1.76h-6.84ZM102.16,29.5h11.66v5.58h-11.66v-5.58ZM103.32,35.34l2.2-.56c.52.72.96,1.74,1.14,2.42l-2.3.66c-.14-.68-.58-1.74-1.04-2.52ZM110.46,34.76l2.32.5c-.5.98-.96,1.88-1.36,2.52l-2.1-.48c.4-.7.9-1.78,1.14-2.54ZM137.52,30.02l1.88,1.14c-.84.92-1.72,1.88-2.44,2.52l-1.5-1c.66-.7,1.56-1.84,2.06-2.66ZM128.62,31.32l1.56-1.02c.82.74,1.7,1.78,2.08,2.54l-1.68,1.12c-.32-.76-1.18-1.86-1.96-2.64ZM129.48,21.7h8.26v7.02h-2.22v-5.06h-6.04v-1.96ZM129.92,24.72h6.86v1.84h-6.86v-1.84ZM128.52,27.58h10.72v2.04h-10.72v-2.04ZM132.64,28.62h2.22v8.92c0,.98-.12,1.56-.76,1.9-.6.34-1.4.36-2.5.36-.06-.6-.32-1.46-.58-2.06.56.02,1.16.02,1.36.02s.26-.06.26-.28v-8.86ZM127.94,36.52c1.02-.58,2.52-1.52,4-2.48l.72,1.8c-1.18.9-2.48,1.84-3.62,2.6l-1.1-1.92ZM134.8,30.04c.64,2.38,2.16,5.36,4.9,6.76-.48.42-1.2,1.36-1.54,1.96-2.62-1.68-4.06-5.12-4.68-7.44l1.32-1.28ZM122,26h5.92v2h-5.92v-2ZM121.04,29.46h7.3v2.04h-7.3v-2.04ZM121.24,32.62l1.52-.38c.34,1.12.62,2.52.72,3.48l-1.62.42c-.04-.96-.32-2.4-.62-3.52ZM120.82,37.2c1.9-.28,4.74-.8,7.44-1.28l.18,1.98c-2.5.52-5.14,1.08-7.16,1.48l-.46-2.18ZM126.78,32.08l1.72.42c-.36,1.14-.68,2.4-.98,3.24l-1.44-.4c.26-.9.56-2.3.7-3.26ZM123.78,26.8h2.06v10.78l-2.06.36v-11.14ZM123.68,21.02h1.26v.44h.68v.62c-.78,1.52-2,3.58-3.98,5.38-.32-.48-1-1.24-1.44-1.56,1.68-1.44,2.86-3.32,3.48-4.88ZM123.98,21.02h1.68c1.16,1,2.64,2.44,3.36,3.46l-1.54,1.84c-.64-1.02-2-2.7-3.08-3.6h-.42v-1.7ZM155.06,21.88c-.06.34-.12,1.4-.14,1.72-.06,1.32-.02,5.4,0,7l-2.5-.84c0-1.24,0-5.08-.08-6.14-.06-.8-.14-1.48-.18-1.74h2.9ZM143.74,24.38c2.98,0,8.26-.16,10.76-.16,2.04,0,5.08-.02,6.2,0l-.04,2.36c-1.24-.06-3.28-.12-6.22-.12-3.64,0-7.62.16-10.64.32l-.06-2.4ZM154.58,30.3c0,3.26-1.2,4.88-3.5,4.88-1.54,0-3.46-1.22-3.46-3.66,0-2.26,1.84-3.74,4-3.74,2.64,0,4.02,1.94,4.02,4.42,0,2.62-1.54,5.92-6.42,7.3l-2.12-2.12c3.4-.74,6.06-2.08,6.06-5.58,0-1.3-.7-1.92-1.58-1.92-.78,0-1.56.54-1.56,1.6,0,.9.74,1.48,1.56,1.48.94,0,1.76-.8,1.12-3.18l1.88.52ZM168.4,22.78c.56.06,1.24.1,1.8.1,1.08,0,5.34-.1,6.48-.2.84-.06,1.3-.14,1.54-.22l1.28,1.8c-.46.3-.94.58-1.38.92-1.08.76-3.18,2.52-4.46,3.52.68-.18,1.28-.22,1.9-.22,3.4,0,5.98,2.12,5.98,5.02,0,3.16-2.4,5.66-7.24,5.66-2.78,0-4.88-1.26-4.88-3.28,0-1.62,1.48-3.1,3.6-3.1,2.74,0,4.26,1.84,4.32,4.04l-2.34.3c-.04-1.44-.8-2.44-1.98-2.44-.74,0-1.24.46-1.24.98,0,.74.82,1.24,2.04,1.24,3.38,0,5.1-1.28,5.1-3.42,0-1.82-1.8-3.04-4.14-3.04-3.08,0-5.06,1.64-7.2,4.06l-1.82-1.88c1.42-1.12,3.84-3.16,5-4.14,1.12-.92,3.22-2.6,4.2-3.48-1.02.04-3.78.14-4.86.22-.54.04-1.16.08-1.62.16l-.08-2.6Z"/>
      <circle class="cls-3" cx="210" cy="30" r="10"/>
      <path class="cls-2" d="M214.5,29.13c.67.38.67,1.35,0,1.73l-6,3.46c-.67.38-1.5-.1-1.5-.87v-6.93c0-.77.83-1.25,1.5-.87l6,3.46Z"/>
    </g>
  </g>
</svg>