<?xml version="1.0" encoding="UTF-8"?>
<svg id="_レイヤー_2" data-name="レイヤー 2" xmlns="http://www.w3.org/2000/svg" width="320" height="91.86" xmlns:xlink="http://www.w3.org/1999/xlink" viewBox="0 0 320 91.86">
  <defs>
    <style>
      .cls-1 {
        fill: url(#_名称未設定グラデーション);
      }

      .cls-1, .cls-2, .cls-3 {
        stroke-width: 0px;
      }

      .cls-2 {
        fill: #fff;
      }

      .cls-3 {
        fill: url(#_名称未設定グラデーション-2);
      }
    </style>
    <linearGradient id="_名称未設定グラデーション" data-name="名称未設定グラデーション" x1="-7.44" y1="19.4" x2="315.58" y2="-72.84" gradientTransform="translate(0 17.51) scale(1 -1)" gradientUnits="userSpaceOnUse">
      <stop offset="0" stop-color="#ffac0a"/>
      <stop offset="1" stop-color="#f96a1a"/>
    </linearGradient>
    <linearGradient id="_名称未設定グラデーション-2" data-name="名称未設定グラデーション" x1="39.73" y1="-22.33" x2="82.96" y2="-32.97" xlink:href="#_名称未設定グラデーション"/>
  </defs>
  <g id="_レイヤー_1-2" data-name="レイヤー 1">
    <g>
      <rect class="cls-1" width="320" height="91.86" rx="6" ry="6"/>
      <path class="cls-2" d="M122.7,35.96h2.44v16.5c0,1.18-.3,1.66-1.06,2-.78.3-1.86.34-3.56.34-.12-.56-.5-1.4-.8-1.88.96.04,2.14.02,2.48.02.38-.02.5-.14.5-.48v-16.5ZM115.2,37.26h17.6v1.9h-17.6v-1.9ZM119.54,41.48v.96h8.84v-.96h-8.84ZM117.26,39.96h13.58v4h-13.58v-4ZM116.76,44.84h14.42v7.82h-2.44v-6.18h-11.98v-1.64ZM114.74,47.32h18.52v1.82h-18.52v-1.82ZM116.6,50.08h13.44v1.74h-13.44v-1.74ZM136.9,38.92h18.2v2.18h-18.2v-2.18ZM139.26,45.74h5.2v1.76h-5.2v-1.76ZM139.26,48.8h5.2v1.78h-5.2v-1.78ZM147.64,42.68h2.22v8.2h-2.22v-8.2ZM143.62,42.48h2.32v9.9c0,1.02-.2,1.58-.88,1.92-.66.36-1.58.38-2.82.38-.12-.6-.46-1.48-.76-2.04.74.04,1.56.04,1.8.02.26,0,.34-.08.34-.32v-9.86ZM151.66,42.14h2.36v9.98c0,1.16-.22,1.78-1.02,2.14-.76.36-1.84.44-3.32.42-.12-.64-.5-1.66-.84-2.28,1.02.06,2.06.06,2.4.04.32,0,.42-.08.42-.36v-9.94ZM139.66,36.74l2.28-.8c.72.78,1.52,1.84,1.86,2.6l-2.42.86c-.28-.72-1.02-1.86-1.72-2.66ZM149.92,35.9l2.62.78c-.82,1.28-1.7,2.56-2.4,3.44l-2.16-.74c.68-.94,1.5-2.4,1.94-3.48ZM138,42.48h6.3v2h-4.04v10.14h-2.26v-12.14ZM164.32,41.3h7.4v2h-7.4v-2ZM159.4,52.38h17.28v1.96h-17.28v-1.96ZM160.56,36.7h5.6v1.94h-5.6v-1.94ZM165.4,36.7h.4l.42-.1,1.56.78c-1.48,3.92-4.64,6.78-8,8.4-.32-.5-.96-1.32-1.44-1.74,2.98-1.26,5.96-3.98,7.06-6.94v-.4ZM169.96,36.02c1.38,3.26,4.18,6.16,7.66,7.48-.56.48-1.26,1.38-1.62,2-3.68-1.68-6.42-4.88-8.08-8.84l2.04-.64ZM159.6,40.3l1.28-1.32c.9.5,2,1.28,2.52,1.88l-1.34,1.46c-.52-.6-1.6-1.46-2.46-2.02ZM173.04,36.14l1.8,1.28c-1.1.94-2.4,1.92-3.4,2.56l-1.44-1.12c.96-.68,2.28-1.84,3.04-2.72ZM175.3,38.48l1.76,1.24c-1.14,1-2.52,2.04-3.58,2.7l-1.44-1.12c1.04-.72,2.44-1.9,3.26-2.82ZM164.5,46.36v1.76h6.84v-1.76h-6.84ZM162.16,44.44h11.66v5.58h-11.66v-5.58ZM163.32,50.28l2.2-.56c.52.72.96,1.74,1.14,2.42l-2.3.66c-.14-.68-.58-1.74-1.04-2.52ZM170.46,49.7l2.32.5c-.5.98-.96,1.88-1.36,2.52l-2.1-.48c.4-.7.9-1.78,1.14-2.54ZM197.52,44.96l1.88,1.14c-.84.92-1.72,1.88-2.44,2.52l-1.5-1c.66-.7,1.56-1.84,2.06-2.66ZM188.62,46.26l1.56-1.02c.82.74,1.7,1.78,2.08,2.54l-1.68,1.12c-.32-.76-1.18-1.86-1.96-2.64ZM189.48,36.64h8.26v7.02h-2.22v-5.06h-6.04v-1.96ZM189.92,39.66h6.86v1.84h-6.86v-1.84ZM188.52,42.52h10.72v2.04h-10.72v-2.04ZM192.64,43.56h2.22v8.92c0,.98-.12,1.56-.76,1.9-.6.34-1.4.36-2.5.36-.06-.6-.32-1.46-.58-2.06.56.02,1.16.02,1.36.02s.26-.06.26-.28v-8.86ZM187.94,51.46c1.02-.58,2.52-1.52,4-2.48l.72,1.8c-1.18.9-2.48,1.84-3.62,2.6l-1.1-1.92ZM194.8,44.98c.64,2.38,2.16,5.36,4.9,6.76-.48.42-1.2,1.36-1.54,1.96-2.62-1.68-4.06-5.12-4.68-7.44l1.32-1.28ZM182,40.94h5.92v2h-5.92v-2ZM181.04,44.4h7.3v2.04h-7.3v-2.04ZM181.24,47.56l1.52-.38c.34,1.12.62,2.52.72,3.48l-1.62.42c-.04-.96-.32-2.4-.62-3.52ZM180.82,52.14c1.9-.28,4.74-.8,7.44-1.28l.18,1.98c-2.5.52-5.14,1.08-7.16,1.48l-.46-2.18ZM186.78,47.02l1.72.42c-.36,1.14-.68,2.4-.98,3.24l-1.44-.4c.26-.9.56-2.3.7-3.26ZM183.78,41.74h2.06v10.78l-2.06.36v-11.14ZM183.68,35.96h1.26v.44h.68v.62c-.78,1.52-2,3.58-3.98,5.38-.32-.48-1-1.24-1.44-1.56,1.68-1.44,2.86-3.32,3.48-4.88ZM183.98,35.96h1.68c1.16,1,2.64,2.44,3.36,3.46l-1.54,1.84c-.64-1.02-2-2.7-3.08-3.6h-.42v-1.7ZM215.06,36.82c-.06.34-.12,1.4-.14,1.72-.06,1.32-.02,5.4,0,7l-2.5-.84c0-1.24,0-5.08-.08-6.14-.06-.8-.14-1.48-.18-1.74h2.9ZM203.74,39.32c2.98,0,8.26-.16,10.76-.16,2.04,0,5.08-.02,6.2,0l-.04,2.36c-1.24-.06-3.28-.12-6.22-.12-3.64,0-7.62.16-10.64.32l-.06-2.4ZM214.58,45.24c0,3.26-1.2,4.88-3.5,4.88-1.54,0-3.46-1.22-3.46-3.66,0-2.26,1.84-3.74,4-3.74,2.64,0,4.02,1.94,4.02,4.42,0,2.62-1.54,5.92-6.42,7.3l-2.12-2.12c3.4-.74,6.06-2.08,6.06-5.58,0-1.3-.7-1.92-1.58-1.92-.78,0-1.56.54-1.56,1.6,0,.9.74,1.48,1.56,1.48.94,0,1.76-.8,1.12-3.18l1.88.52ZM228.4,37.72c.56.06,1.24.1,1.8.1,1.08,0,5.34-.1,6.48-.2.84-.06,1.3-.14,1.54-.22l1.28,1.8c-.46.3-.94.58-1.38.92-1.08.76-3.18,2.52-4.46,3.52.68-.18,1.28-.22,1.9-.22,3.4,0,5.98,2.12,5.98,5.02,0,3.16-2.4,5.66-7.24,5.66-2.78,0-4.88-1.26-4.88-3.28,0-1.62,1.48-3.1,3.6-3.1,2.74,0,4.26,1.84,4.32,4.04l-2.34.3c-.04-1.44-.8-2.44-1.98-2.44-.74,0-1.24.46-1.24.98,0,.74.82,1.24,2.04,1.24,3.38,0,5.1-1.28,5.1-3.42,0-1.82-1.8-3.04-4.14-3.04-3.08,0-5.06,1.64-7.2,4.06l-1.82-1.88c1.42-1.12,3.84-3.16,5-4.14,1.12-.92,3.22-2.6,4.2-3.48-1.02.04-3.78.14-4.86.22-.54.04-1.16.08-1.62.16l-.08-2.6Z"/>
      <ellipse class="cls-2" cx="62" cy="45.93" rx="30" ry="29.95"/>
      <path class="cls-3" d="M45.7,35.96l2.36.68c-1.1,2.22-2.88,4.38-4.56,5.7-.44-.44-1.4-1.2-1.96-1.56,1.68-1.12,3.28-2.96,4.16-4.82ZM45.54,38.06h13.78v2.12h-14.36l.58-2.12ZM41.96,42.72h18.08v2.14h-18.08v-2.14ZM42.3,47.42h17.46v2.14h-17.46v-2.14ZM48.22,38.82h2.02v9.72h-2.02v-9.72ZM44.68,38.82h2.12v9.74h-2.12v-9.74ZM51.7,38.82h2v9.74h-2v-9.74ZM55.22,38.82h2.2v9.74h-2.2v-9.74ZM47.62,50.68l2.22-.26c.26,1.22.5,2.8.52,3.78l-2.36.34c0-.98-.14-2.62-.38-3.86ZM51.6,50.72l2.26-.38c.5,1.18,1,2.76,1.18,3.74l-2.4.48c-.14-.98-.58-2.6-1.04-3.84ZM55.58,50.62l2.3-.72c.9,1.22,2.04,2.92,2.54,4.04l-2.44.82c-.44-1.1-1.5-2.86-2.4-4.14ZM44.02,49.98l2.34.56c-.46,1.54-1.32,3.18-2.28,4.22l-2.32-.92c.92-.84,1.8-2.4,2.26-3.86ZM66.78,36.06h2.22v18.64h-2.22v-18.64ZM63.76,42.62h8.2v2.24h-8.2v-2.24ZM66.36,43.82l1.32.64c-.64,2.68-1.88,6.16-3.2,8.08-.22-.74-.74-1.8-1.1-2.48,1.2-1.48,2.42-4.26,2.98-6.24ZM68.96,44.98c.58.52,2.52,2.84,2.96,3.4l-1.48,1.88c-.52-1.14-1.86-3.36-2.58-4.34l1.1-.94ZM63.72,37.6l1.68-.44c.52,1.46.92,3.36,1.02,4.62l-1.8.48c-.04-1.26-.42-3.2-.9-4.66ZM70.32,37.06l2.02.44c-.52,1.62-1.12,3.52-1.62,4.7l-1.5-.42c.4-1.28.88-3.3,1.1-4.72ZM77.88,35.94h2.26v18.78h-2.26v-18.78ZM71.9,48.46l10.28-1.84.36,2.22-10.26,1.86-.38-2.24ZM73.04,38.68l1.18-1.64c1.12.68,2.54,1.68,3.2,2.42l-1.26,1.82c-.6-.78-2-1.88-3.12-2.6ZM72.14,43.72l1.12-1.72c1.16.62,2.66,1.58,3.38,2.32l-1.2,1.9c-.68-.74-2.14-1.82-3.3-2.5Z"/>
      <path class="cls-2" d="M294.5,44.06c.67.38.67,1.35,0,1.73l-15,8.65c-.67.38-1.5-.1-1.5-.87v-17.29c0-.77.83-1.25,1.5-.87l15,8.65Z"/>
    </g>
  </g>
</svg>