<svg width="718" height="725" viewBox="0 0 718 725" fill="none" xmlns="http://www.w3.org/2000/svg">
<g opacity="0.2">
<path d="M439.261 309.678C439.944 310.79 440.6 309.678 440.6 309.678C440.6 309.678 443.008 308.128 443.235 307.576C443.2 307.427 443.191 307.366 443.244 307.445C443.261 307.48 443.253 307.524 443.235 307.576C443.349 308.102 443.795 309.774 443.288 310.79C442.631 312.095 442.193 311.903 441.975 313.024C441.765 314.145 439.331 316.387 439.331 316.387C439.331 316.387 442.465 317.14 443.375 317.508C444.277 317.875 446.929 315.449 448.697 314.145C450.457 312.831 450.877 310.598 451.306 309.678C451.735 308.75 453.967 308.566 453.967 308.566C453.967 308.566 454.142 305.79 453.906 305.229C453.669 304.677 449.923 306.709 449.914 306.341C449.914 305.973 448.785 305.229 448.557 305.229C448.33 305.229 448.75 302.821 449.818 300.798C450.886 298.774 449.704 294.194 449.704 294.194C449.704 294.194 447.314 296.576 447.095 297.496C446.885 298.407 444.469 299.703 444.478 300.806C444.496 301.91 440.521 304.126 440.521 304.126C440.521 304.126 440.11 306.35 440.548 306.35C440.985 306.35 438.569 308.575 439.252 309.687L439.261 309.678ZM52.6261 663.269L48.7395 667.929L44.5816 674.173C44.5816 674.173 40.3099 676.581 39.3207 677.308C38.3316 678.026 35.0665 674.173 35.0665 674.173H30.3134L35.8894 678.876L32.1954 682.02L30.0858 685.173L23.4506 686.758L21.3235 689.92L22.12 694.684L19.9842 697.872L15.9663 702.671L18.6361 705.877H21.8487L25.5864 702.671L22.6453 701.068C22.6453 701.068 25.6477 695.735 25.3063 694.684C24.9737 693.633 30.3659 693.09 30.3659 693.09C30.3659 693.09 28.8603 691.373 29.2892 689.911C29.7181 688.448 28.6414 688.895 31.1449 688.326C33.6485 687.756 34.5938 686.741 34.5938 686.741L40.1348 682.003C41.3166 680.978 44.4065 679.944 45.1593 680.426C45.9034 680.917 48.7921 677.79 50.4202 677.282C52.0396 676.783 52.241 673.507 52.7399 672.588C53.2389 671.668 55.5848 668.016 55.2959 666.352C54.9983 664.688 52.6261 663.252 52.6261 663.252V663.269ZM589.2 236.663C589.025 234.772 588.456 228.431 586.986 226.382C585.524 224.341 582.696 221.285 582.696 221.285C582.696 221.285 583.204 219.761 582.609 220.269C582.014 220.777 581.664 216.722 582.25 216.214C582.845 215.706 581.331 213.008 581.9 212.176C582.46 211.344 575.037 206.151 575.037 206.151L572.332 204.154C572.332 204.154 567.308 200.134 566.87 199.171C566.424 198.208 565.111 197.323 564.113 196.193C563.115 195.063 561.373 190.168 560.979 188.302C560.585 186.437 561.32 176.593 561.32 176.593L561.81 166.951L555.823 169.832H553.337L549.258 165.033L545.468 164.078H541.747L538.412 169.832L537.423 173.694C537.423 173.694 539.568 177.267 540.11 176.602C540.653 175.936 546.544 176.05 547.525 175.63C548.505 175.209 554.86 173.694 554.86 173.694L557.574 176.602L555.447 181.462C555.447 181.462 554.204 184.011 554.554 186.349C554.904 188.696 552.19 188.311 552.19 188.311L546.964 185.368L541.887 184.388L539.769 190.273H533.484C533.484 190.273 533.353 184.624 533.055 183.407C532.758 182.198 531.497 178.537 531.497 178.537L530.009 174.658L525.142 176.593C525.142 176.593 521.711 173.913 521.29 174.658C520.87 175.402 518.962 177.565 518.962 177.565L521.676 181.454C521.676 181.454 520.748 184.615 520.643 185.36C520.538 186.104 518.297 188.302 518.297 188.302L517.255 192.235C517.255 192.235 510.585 194.196 509.753 193.224C508.922 192.243 504.948 198.173 504.948 198.173L502.514 200.161L505.088 201.159L506.541 205.153L509.359 208.454L510.637 211.178L510.734 213.192C510.734 213.192 510.235 215.89 509.666 217.238C509.088 218.587 508.283 219.603 508.589 221.302C508.887 223.001 505.333 224.7 503.661 225.383C501.989 226.066 499.818 225.383 499.818 225.383L497.341 227.433L497.428 229.482L498.759 230.507H502.61C502.61 230.507 502.75 228.79 502.514 228.457C502.278 228.116 506.366 228.457 506.366 228.457L508.983 229.482L511.705 232.565C511.705 232.565 513.106 234.798 513.15 235.656C513.193 236.515 512.012 238.757 512.012 238.757L512.318 244.992C512.318 244.992 510.839 249.879 511.285 250.221C511.732 250.571 509.447 252.498 508.79 252.323C508.134 252.147 506.357 255.826 506.392 256.535L506.541 259.705L507.897 260.765L509.237 261.562C509.237 261.562 511.408 261.387 512.537 261.58C512.537 261.58 510.383 261.764 509.237 261.562C507.757 261.299 506.541 259.705 506.541 259.705C506.541 259.705 505.683 264.662 505.481 265.013C505.28 265.363 504.335 268.568 504.37 269.287C504.405 270.005 502.768 272.501 503.249 273.578C503.731 274.655 500.982 276.626 500.807 277.887C500.641 279.148 498.207 278.78 495.625 280.05C493.043 281.32 494.277 284.928 494.522 285.471L491.31 289.333C491.31 289.333 491.458 291.663 490.802 292.022C490.154 292.381 489.918 297.881 489.681 297.513C489.445 297.145 489.349 300.456 489.848 301.927C489.979 302.313 488.071 304.161 487.3 305.255C486.25 306.735 482.714 307.848 480.77 309.704C478.818 311.57 475.457 311.009 472.805 311.938C470.152 312.866 464.874 316.413 464.874 316.413C464.874 316.413 463.237 322.797 463.692 323.174C464.147 323.551 463.526 326.003 462.423 326.572C461.311 327.141 460.681 329.217 458.466 331.117C456.243 333.018 456.059 334.542 455.849 335.68C455.639 336.828 451.805 337.02 449.126 339.122C446.439 341.224 444.671 343.921 443.769 344.885C442.867 345.839 437.633 344.692 436.959 344.885L432.88 346.041C432.88 346.041 429.037 348.738 428.809 349.518C428.582 350.297 421.754 351.462 420.625 351.839C419.487 352.224 415.154 354.168 415.154 354.168L416.519 355.333L418.55 357.023C418.55 357.023 418.121 359.668 419.268 362.357C418.042 360.842 418.445 359.081 418.445 359.081C418.445 359.081 418.533 356.796 417.894 356.498C416.896 356.034 415.154 354.159 415.154 354.159H411.048C411.048 354.159 408.676 355.911 406.934 356.498C405.192 357.085 405.647 358.276 405.542 360.01C405.437 361.744 403.87 362.147 402.776 363.53C401.682 364.923 400.317 365.606 398.627 365.886C396.946 366.175 394.25 365.606 393.139 364.713C392.018 363.819 389.252 362.374 389.059 361.183C388.867 360.001 389.094 358.836 389.094 358.836L390.53 354.159L391.913 352.995L390.574 350.665L390.6 348.344L387.887 347.188C387.887 347.188 387.177 348.87 387.852 349.509C388.526 350.148 383.755 349.509 383.755 349.509L382.407 348.353L383.807 346.041L385.19 344.885H389.278C389.278 344.885 390.259 343.151 392.027 342.581C393.804 342.003 393.419 340.278 393.419 340.278C393.419 340.278 395.275 340.62 396.132 340.278C396.99 339.937 398.54 338.728 398.872 337.984C399.205 337.239 398.89 335.689 398.89 335.689C398.89 335.689 401.56 334.095 402.978 333.403C404.387 332.711 404.343 331.126 404.343 331.126C404.343 331.126 402.339 329.296 401.656 328.849C400.973 328.402 399.362 329.506 397.594 329.988C395.817 330.469 392.377 332.851 390.784 333.403C389.191 333.964 387.878 334.945 385.33 335.689C382.783 336.433 382.888 335.987 379.886 336.836C377.496 337.511 376.997 338.036 377.041 338.062C377.058 338.071 377.093 338.054 377.155 337.984C377.435 337.66 375.842 340.628 375.728 341.434C375.614 342.24 374.73 345.489 374.275 346.05C373.811 346.61 376.656 349.526 376.91 350.683C377.155 351.847 376.866 353.012 376.866 353.012C376.866 353.012 377.75 358.074 378.118 358.854C378.485 359.624 376.691 360.018 375.299 362.374C373.907 364.739 373.023 367.13 372.445 367.086C371.868 367.042 368.576 373.436 368.139 374.197C367.71 374.959 364.383 378.235 363.867 378.962C363.35 379.689 355.376 384.952 355.376 384.952L355.306 387.352C355.306 387.352 356.785 389.699 357.984 390.969C356.96 389.97 355.56 388.385 355.306 387.352C355.061 386.318 355.376 384.952 355.376 384.952C355.376 384.952 351.087 387.474 349.704 388.56C348.321 389.646 348.233 390.978 348.233 390.978C348.233 390.978 347.682 394.139 346.675 395.821C345.668 397.511 344.381 397.599 342.394 398.247C340.416 398.904 341.379 399.674 342.307 400.681C343.235 401.697 343.419 401.986 343.576 404.351C343.734 406.716 345.975 405.008 346.342 405.577C346.701 406.138 349.073 408.292 349.03 409.264C348.986 410.236 348.163 411.567 347.463 414.195C346.754 416.831 346.22 413.906 346.097 412.96C345.975 412.014 342.806 412.032 341.922 411.725C341.029 411.418 342.149 415.552 341.747 416.664C341.344 417.777 340.232 416.726 337.519 416.664C334.796 416.603 337.221 418.609 336.013 419.143C334.805 419.677 334.271 418.609 331.724 420.387C330.673 421.122 330.245 421.455 330.096 421.604C330.201 421.621 330.253 421.63 330.253 421.63C330.253 421.63 329.886 421.814 330.096 421.604C329.369 421.473 326.34 420.903 326.069 420.387C325.754 419.8 323.889 422.629 323.128 422.874C322.366 423.128 320.257 419.555 319.005 420.387C318.769 420.544 318.629 420.684 318.559 420.807C318.541 419.957 319.057 419.143 319.057 419.143C319.057 419.143 316.808 418.609 316.23 419.143C315.652 419.677 314.007 420.973 313.28 421.63C312.554 422.287 311.573 421.21 310.514 420.387C309.455 419.563 310.68 417.663 310.768 415.421C310.855 413.179 313.49 415.071 315.057 414.186C316.624 413.293 313.875 412.732 312.37 411.716C310.855 410.709 311.092 409.255 311.092 409.255C311.092 409.255 308.089 411.086 306.741 411.716C305.402 412.347 304.57 411.795 302.452 412.951C300.334 414.116 298.031 414.458 296.482 414.808C295.799 414.957 295.449 415.237 295.292 415.5C295.292 415.473 295.283 415.438 295.274 415.421C295.038 414.825 292.333 415.071 292.455 415.421C292.578 415.762 279.78 414.606 279.772 415.421C279.763 416.235 277.609 415.071 276.953 415.421C276.752 415.526 276.384 415.92 275.964 416.419C275.964 416.419 272.06 417.908 271.141 417.908C270.221 417.908 267.026 420.737 265.223 421.639C263.42 422.541 261.232 422.637 259.472 422.883C257.713 423.137 256.216 421.446 253.914 421.639C251.611 421.823 253.117 423.347 252.303 424.135C251.489 424.923 247.664 424.301 245.23 424.135C242.797 423.969 242.508 422.891 242.508 422.891H234.017C234.017 422.891 233.518 422.883 232.494 424.135C231.461 425.396 224.003 424.135 224.003 424.135C224.003 424.135 224.16 427.253 223.688 428.759C224.152 427.209 224.003 424.135 224.003 424.135L225.762 420.395C225.762 420.395 215.372 418.854 214.461 420.395C213.551 421.937 210.645 420.509 208.807 420.395C206.968 420.282 204.316 422.883 204.316 422.883C204.316 422.883 198.346 425.002 198.399 425.379C198.443 425.755 196.219 427.375 195.3 427.883C194.381 428.383 195.396 432.639 194.766 432.902C194.145 433.164 192.858 433.593 191.79 434.163C190.722 434.732 188.008 435.993 187.247 436.685C186.485 437.377 180.979 441.747 180.979 441.747L177.977 443.017C177.977 443.017 175.158 444.173 173.399 445.566C171.63 446.958 168.514 449.752 167.079 450.671C165.634 451.591 159.104 457.809 157.38 459.666C155.655 461.522 151.121 463.029 151.121 463.029C151.121 463.029 151.121 463.029 151.121 463.038C150.876 462.223 149.65 461.82 149.869 462.249C150.132 462.766 146.044 461.733 143.934 463.546C141.825 465.358 142.14 466.409 141.991 467.434C141.842 468.467 138.936 468.739 138.936 468.739C138.936 468.739 136.923 470.613 135.697 471.349C134.472 472.076 132.581 474.344 130.83 475.272C129.079 476.201 128.764 476.087 126.121 477.9C123.477 479.713 123.398 476.586 123.398 476.586C123.398 476.586 118.768 474.598 117.962 473.967C117.148 473.337 116.396 475.842 114.514 477.9C112.623 479.967 110.925 479.327 109.971 479.213C109.016 479.1 112.124 484.486 112.124 484.486C111.853 484.372 109.979 487.875 108.64 488.453C107.301 489.04 107.266 489.381 108.264 491.107C109.261 492.832 109.043 494.435 109.156 495.1C109.261 495.766 110.75 498.244 111.704 497.771C112.658 497.298 112.141 496.204 112.08 495.1C112.019 493.997 114.093 494.181 115.196 493.769C116.291 493.357 116.019 492.412 116.842 492.438C117.674 492.464 117.709 494.181 119.398 495.1C121.088 496.02 120.492 496.204 121.963 497.771C123.433 499.339 126.62 498.236 127.828 497.771C129.036 497.298 129.473 496.431 129.473 496.431L129.832 493.769C129.832 493.769 132.957 496.72 133.868 496.431C134.787 496.151 134.218 493.769 134.218 493.769C134.218 493.769 140.188 494.689 141.527 493.769C142.875 492.849 143.952 493.419 144.617 492.438C145.282 491.457 146.394 491.65 147.541 492.438C148.687 493.226 151.699 493.681 154.36 496.44C157.03 499.208 156.968 499.12 156.968 499.12L161.205 500.46C161.205 500.46 165.888 503.087 166.763 503.14C167.639 503.193 164.978 501.301 164.137 500.46C163.297 499.619 165.302 498.507 165.914 497.78C166.527 497.053 167.429 496.974 168.996 496.44C170.562 495.906 168.891 493.935 169.451 492.438C170.02 490.949 167.324 490.642 168.453 488.453C169.582 486.272 169.197 486.36 168.969 484.818C168.908 484.389 168.794 484.223 168.628 484.188C168.751 484.135 168.829 484.1 168.829 484.1C168.829 484.1 173.066 481.219 173.723 480.527C174.379 479.826 178.519 476.586 178.519 476.586H181.417L184.034 479.213C184.034 479.213 182.572 484.363 183.465 484.486C184.358 484.608 186.433 486.01 187.693 485.808C188.954 485.607 194.223 483.233 193.794 483.163C193.707 483.154 193.663 483.154 193.663 483.154C193.663 483.128 194.328 483.058 195.388 481.85C196.517 480.545 199.519 479.073 199.992 479.091C200.263 479.012 200.71 479.003 201.471 479.213C203.66 479.835 206.391 479.599 207.284 479.213C208.176 478.837 209.682 477.085 210.444 476.586C211.205 476.087 212.019 475.272 212.019 475.272C212.019 475.272 215.783 474.081 216.492 473.967C217.201 473.845 218.269 474.213 219.267 475.272C220.274 476.332 220.773 477.076 222.051 476.586C223.329 476.087 225.587 474.335 226.638 473.967C227.688 473.6 229.798 470.876 229.806 470.867L232.284 472.032L235.444 472.662L237.116 470.053L238.341 472.662C238.341 472.662 242.096 472.61 245.58 472.662C249.064 472.715 250.5 470.622 250.132 470.053C249.756 469.483 252.679 467.408 254.771 466.147C256.855 464.885 257.826 464.693 259.297 463.554C260.768 462.416 262.501 461.006 263.901 459.674C265.302 458.343 268.217 459.674 268.217 459.674C269.355 461.286 270.834 459.044 272.62 458.387C274.406 457.73 282.774 457.1 282.774 457.1H288.525C288.525 457.1 291.361 459.044 292.613 460.971C293.874 462.897 296.053 462.976 296.788 463.554C297.524 464.141 300.089 464.448 301.043 464.85C302.006 465.253 305.061 463.703 305.507 462.258C305.953 460.813 309.008 461.496 311.337 460.962C313.665 460.428 313.481 459.526 314.339 458.378C314.724 457.87 315.136 456.776 315.477 455.62C314.908 457.292 315.722 459.666 315.722 459.666C315.722 459.666 315.539 462.223 315.539 463.546C315.539 464.868 315.328 466.663 315.293 468.739C315.25 470.823 313.823 469.623 312.212 472.654C310.602 475.693 309.7 475.088 307.669 476.577C305.63 478.075 303.249 477.891 303.249 477.891L300.272 479.205C300.272 479.205 301.883 480.764 302.478 480.466C302.487 480.466 302.513 480.448 302.522 480.44L300.124 481.841C300.124 481.841 300.833 484.608 301.437 484.477C302.041 484.346 301.787 484.994 302.82 485.799C303.853 486.605 306.321 488.523 305.595 488.444C304.868 488.365 302.61 489.775 302.61 489.775C302.61 489.775 301.428 491.702 302.47 492.429C303.511 493.165 303.791 495.091 303.791 495.091C303.791 495.091 301.874 496.142 300.789 496.423C299.703 496.703 299.231 496.02 299.248 497.763C299.266 499.505 302.023 501.257 301.962 501.783C301.901 502.308 304.982 503.569 304.763 504.471C304.535 505.373 307.634 505.82 307.634 505.82C307.634 505.82 311.109 507.563 311.915 508.517C312.72 509.481 311.109 513.229 311.652 513.938C312.195 514.639 315.635 515.83 315.95 516.653C316.265 517.485 317.981 519.719 318.786 519.377C319.583 519.036 319.364 520.638 321.684 520.743C324.003 520.857 326.927 522.075 327.548 522.11C328.17 522.145 328.625 522.197 330.568 520.743C332.503 519.298 333.676 519.587 335.111 518.02C336.547 516.452 337.44 516.986 338.166 515.296C338.893 513.614 339.558 509.91 339.558 509.91L338.079 506.993L335.059 504.892C335.672 505.119 336.626 505.61 338.079 506.993C339.304 508.158 339.523 509.192 339.558 509.91C339.593 510.558 339.471 510.943 339.803 510.926C340.154 510.908 342.788 509.866 342.788 509.866C342.788 509.866 342.403 507.668 342.885 507.169C343.357 506.669 343.55 504.892 344.495 503.131C345.432 501.371 347.428 500.11 347.559 499.111C347.69 498.104 350.386 497.675 351.997 497.771C353.608 497.868 353.503 494.303 353.581 493.769C353.651 493.235 353.862 490.099 353.695 489.775C353.529 489.46 355.07 488.208 355.227 487.122C355.393 486.036 357.319 485.694 359.674 484.477C362.02 483.26 363.35 484.223 365.53 483.154C367.71 482.086 371.159 480.168 371.439 479.205C371.719 478.25 374.721 479.958 375.772 480.518C376.822 481.088 378.485 481.727 378.652 481.832C378.827 481.937 379.308 479.949 378.695 479.196C378.083 478.443 380.857 476.621 381.663 475.264C382.468 473.906 381.251 473.626 381.707 472.645C382.162 471.664 378.424 471.349 377.382 471.34C376.341 471.323 375.36 470.429 373.093 468.73C370.835 467.04 370.59 468.056 368.813 466.129C367.036 464.211 366.703 463.843 365.985 463.537C365.276 463.23 365.504 461.592 366.046 460.953C366.598 460.305 366.265 457.835 366.143 457.082C366.02 456.338 369.11 453.229 369.11 453.229C369.11 453.229 370.231 448.797 370.66 448.105C371.088 447.422 371.526 446.573 372.121 446.827C372.717 447.081 375.01 445.557 375.01 445.557C375.01 445.557 375.439 443.56 375.063 443.008C374.695 442.474 373.364 440.74 373.321 440.687C373.977 441.441 374.73 442.334 375.063 443.008C375.78 444.471 376.463 444.278 376.463 444.278H380.752C380.752 444.278 379.571 445.662 379.273 446.827C378.984 447.991 378.284 447.781 377.82 448.105C377.356 448.429 380.043 451.328 380.621 451.941C381.199 452.554 379.326 453.658 379.142 454.507C378.958 455.357 380.393 457.415 380.516 458.37C380.63 459.324 383.072 460.682 383.352 460.953C383.632 461.225 385.567 461.093 386.25 459.666C386.932 458.238 384.122 458.44 383.413 457.091C382.704 455.742 383.457 454.516 383.457 454.516C383.457 454.516 384.665 453.667 384.91 453.237C385.164 452.8 386.337 455.707 386.293 457.091C386.25 458.483 389.497 457.634 392.027 458.378C394.565 459.123 395.187 456.408 394.933 455.804C394.679 455.199 397.822 454.516 397.822 454.516C397.822 454.516 398.942 456.101 400.675 457.091C402.409 458.081 400.64 458.133 400.658 459.666C400.675 461.198 398.233 460.48 397.769 460.953C397.305 461.435 391.475 462.932 390.53 463.537C389.585 464.15 389.051 466.129 389.051 466.129C389.051 466.129 394.417 465.393 396.29 464.833C398.154 464.272 401.98 462.827 403.52 462.241C405.07 461.654 409.578 462.495 409.578 462.495L409.569 462.477C410.532 462.81 411.6 458.194 410.742 457.082C409.797 455.856 413.622 455.795 413.622 455.795C413.622 455.795 413.806 457.117 413.622 458.37C413.429 459.622 415.057 460.953 415.057 460.953C415.057 460.953 416.703 461.855 417.937 462.249C419.172 462.635 421.728 463.055 423.706 463.546C425.684 464.036 427.811 461.628 429.466 462.249C431.129 462.871 437.335 463.283 438.132 463.546C438.928 463.808 441.327 465.674 442.474 464.842C443.62 464.01 441.029 462.337 440.977 459.666C440.915 456.995 443.34 456.417 445.231 454.516C447.113 452.616 446.632 451.95 446.632 451.95L448.032 449.393L453.739 448.114C453.739 448.114 456.068 446.327 455.105 444.296C454.142 442.264 456.532 442.597 456.488 441.756C456.444 440.915 459.315 440.486 459.315 440.486C459.315 440.486 463.823 440.267 467.876 440.486C471.938 440.705 469.338 441.756 469.338 441.756L469.434 445.574L466.598 446.844C466.598 446.844 465.346 450.076 465.259 450.68C465.171 451.284 464.699 456.425 463.964 457.1C463.228 457.765 465.881 461.873 465.522 462.258C465.154 462.643 469.146 465.428 469.942 466.147C470.739 466.865 472.796 463.773 474.17 462.258C475.544 460.743 475.614 460.445 476.98 459.674C478.337 458.904 478.941 456.198 479.746 455.812C480.551 455.427 481.742 453.605 482.538 453.246C483.335 452.887 483.851 449.402 483.851 449.402C483.851 449.402 481.129 446.398 480.875 445.574C479.597 441.467 478.311 440.302 477.864 440.004C478.582 440.381 479.3 440.495 479.3 440.495L482.11 439.225C482.11 439.225 482.792 436.326 483.414 435.433C484.035 434.539 487.677 434.023 489.016 432.91C490.355 431.807 494.093 431.474 494.653 431.649C495.214 431.824 497.49 431.649 497.49 431.649C497.49 431.649 500.142 433.086 500.431 434.163C500.72 435.249 502.006 437.946 502.006 437.946C502.006 437.946 503.862 440.731 504.965 440.477C506.068 440.223 506.103 437.937 506.234 436.685C506.366 435.433 507.609 435.424 507.609 435.424C507.609 435.424 505.149 433.769 504.659 432.902C504.168 432.035 504.16 428.707 503.03 427.883C501.901 427.06 503.722 424.809 504.291 424.135C504.86 423.461 508.484 422.891 508.484 422.891L508.081 422.418C508.195 422.506 508.326 422.576 508.475 422.637C509.701 423.128 509.158 418.197 509.683 417.926C510.208 417.654 511.04 416.682 511.04 416.682C511.04 416.682 514.41 415.579 514.366 414.414L515.329 417.926L516.616 415.447H519.435C519.435 415.447 523.304 417.514 523.855 419.169C524.407 420.824 521.395 421.656 519.802 422.9C518.209 424.144 516.362 424.985 515.679 425.396C514.988 425.808 514.156 428.312 513.018 429.153C511.88 429.994 510.751 431.448 510.296 431.667C509.841 431.877 513.193 432.928 513.193 432.928C513.193 432.928 514.191 433.97 513.307 435.45C512.423 436.93 512.633 436.3 513.482 439.242C514.331 442.194 513.272 444.953 512.344 445.592C511.416 446.222 510.112 446.336 509.534 446.862C509.21 447.159 511.075 449.419 511.075 449.419L515.487 451.976L518.235 449.419C518.235 449.419 519.347 447.72 520.914 445.592C522.481 443.464 524.766 441.773 525.011 441.773C525.256 441.773 532.32 440.504 534.858 439.242C537.397 437.981 537.082 436.501 537.563 436.711C538.045 436.922 537.826 428.952 537.055 427.91C536.285 426.876 536.627 424.573 536.837 424.161C537.055 423.75 537.852 421.455 539.445 420.422C541.038 419.388 546.124 414.221 546.124 414.221C546.124 414.221 548.663 413.608 548.943 414.221C549.223 414.843 553.083 412.986 554.492 412.986H555.902L555.823 411.751C555.823 411.751 555.07 411.235 554.107 410.578L556.865 412.251C556.865 412.251 554.055 409.895 552.847 409.282C551.639 408.669 548.706 403.151 548.243 403.151C547.779 403.151 545.135 398.273 545.135 398.273C545.135 398.273 544.251 395.234 543.516 394.63C542.78 394.025 542.106 390.391 541.826 389.786C541.555 389.182 541.24 380.179 541.24 380.179C541.24 380.179 543.087 376.396 543.787 376.597C544.496 376.799 544.689 372.639 544.872 371.842C545.056 371.045 547.341 367.305 548.628 365.93C549.914 364.555 549.617 360.053 549.617 360.053C549.617 360.053 545.608 358.1 545.354 357.706C545.354 357.706 549.363 359.659 549.617 360.053C549.871 360.439 552.427 357.514 553.573 357.706C554.72 357.908 558.003 352.46 558.65 351.874C559.289 351.296 557.6 346.654 558.248 346.076C558.887 345.498 558.537 340.506 559.036 338.01C559.535 335.523 556.909 326.975 556.882 326.607C556.856 326.23 556.69 320.582 556.41 319.828C556.129 319.075 551.989 314.215 551.989 314.215L549.442 314.942L546.396 317.035L544.233 318.707L548.917 315.09L551.989 314.215L551.613 308.627C551.578 308.067 552.882 301.227 552.418 300.859C551.954 300.491 554.055 295.709 554.694 295.35L558.519 293.152L562.336 290.962H566.31C566.31 290.962 566.607 289.141 568.962 290.962C571.317 292.793 576.122 297.548 576.122 297.548C576.122 297.548 578.04 296.638 577.269 295.35C576.499 294.063 572.892 290.419 572.849 289.876C572.805 289.333 573.89 289.141 573.995 287.696C574.1 286.251 573.645 283.343 573.645 283.343L572.236 282.257C572.236 282.257 574.057 280.278 573.383 280.094C572.709 279.91 574.879 279.551 574.617 279.017C574.354 278.474 573.129 276.862 573.129 276.862C573.129 276.862 575.72 273.631 575.501 273.631C575.282 273.631 577.961 271.669 577.952 271.485C577.934 271.301 577.611 270.057 577.777 269.348C577.777 269.348 580.097 268.463 580.219 267.211C580.333 265.967 582.495 265.792 584.053 266.143C585.611 266.493 584.78 264.365 585.174 264.014C585.576 263.664 586.163 262.955 587.695 262.955C589.227 262.955 587.345 261.545 587.511 260.835C587.668 260.126 586.898 258.716 588.535 257.656C590.172 256.596 589.901 255.896 589.647 255.545C589.393 255.195 588.448 254.144 588.159 253.435C587.879 252.734 588.176 251.158 589.174 250.282C590.172 249.415 590.758 248.714 590.286 248.189C589.813 247.663 590.522 246.096 591.292 245.054C591.8 244.362 592.141 243.985 592.334 243.906C591.914 243.398 590.802 241.585 590.916 240.894C591.056 240.035 589.419 238.643 589.253 236.751L589.2 236.663ZM716.503 91.4838H710.551L704.134 95.9065L701.604 95.022L698.795 92.3683L697.184 89.7235L695.433 86.2115L700.038 85.3358L696.203 83.5842L693.56 81.8413L689.463 78.3557L687.879 75.7546L691.774 70.5699L693.306 65.4203C693.306 65.4203 696.422 59.5087 696.886 58.5979C697.359 57.6871 695.442 56.8989 695.442 56.8989C695.442 56.8989 688.982 61.3829 689.244 62.0047C689.507 62.6178 683.791 64.5708 683.791 64.5708L676.491 70.5787C676.491 70.5787 670.906 71.0954 669.558 71.437C668.21 71.7785 661.417 69.4664 660.962 68.8534C660.498 68.2403 656.848 64.562 656.848 64.562C656.848 64.562 655.298 67.8462 655.097 68.8534C654.896 69.8605 651.342 67.1368 651.342 67.1368L652.164 64.562L648.418 62.8542C648.418 62.8542 645.897 63.8001 645.127 64.562C644.356 65.324 642.781 64.562 642.781 64.562L636.811 63.7038C636.811 63.7038 635.331 61.9171 635.314 61.1464C635.296 60.3757 631.016 59.7802 630.324 58.5979C629.633 57.4156 620.582 55.2086 620.582 55.2086C620.582 55.2086 612.625 49.9363 610.594 49.3058C608.563 48.6752 598.103 40.4603 596.763 39.278C595.424 38.0957 592.807 34.9866 590.312 32.657C587.826 30.3362 580.709 22.3402 578.862 21.2017C577.015 20.0631 572.752 17.9963 571.632 17.1468C570.511 16.2973 567.85 13.1094 567.85 13.1094L565.863 16.341H561.303L558.957 15.5353L558.16 19.5815C558.16 19.5815 554.878 23.1197 555.132 24.4684C555.394 25.8171 555.884 26.7191 557.828 29.3815C559.78 32.0527 564.428 39.2867 564.428 39.2867L565.076 46.7922C565.076 46.7922 564.988 52.8527 564.489 53.5183C563.999 54.1839 562.353 56.3121 561.276 56.8989C560.2 57.4944 562.826 66.4888 563.307 67.1368C563.78 67.7762 561.39 72.2952 561.39 72.2952C561.39 72.2952 555.342 74.3533 554.536 74.8876C553.731 75.4218 551.271 78.3557 551.271 78.3557C551.271 78.3557 554.142 82.5507 554.046 83.5842C553.95 84.6176 556.76 87.9631 556.76 87.9631C556.76 87.9631 556.812 92.7712 555.989 93.2529C555.167 93.7346 550.86 98.35 550.501 99.4622C550.142 100.575 545.765 100.583 544.522 99.4622C543.279 98.3412 539.682 98.5689 539.682 98.5689C539.682 98.5689 533.703 100.303 531.374 99.4622C529.046 98.6215 527.619 96.7998 527.619 96.7998L522.63 93.2529C522.63 93.2529 518.638 93.6032 517.868 93.2529C517.097 92.9026 515.583 95.022 515.583 95.022C515.583 95.022 518.209 99.182 518.27 100.356C518.34 101.52 522.069 103.929 522.069 103.929C522.069 103.929 522.367 105.934 522.227 106.617C522.087 107.301 518.726 108.413 518.726 108.413L515.417 113.825C515.417 113.825 514.104 113.869 512.957 112.923C511.81 111.977 509.438 114.736 509.438 114.736L507.162 117.46C507.162 117.46 504.037 117.293 502.33 117.46C500.623 117.626 498.75 118.371 498.75 118.371C498.75 118.371 499.582 127.645 499.249 129.353C498.925 131.061 496.938 132.12 496.938 132.12C496.938 132.12 496.868 135.781 498.321 135.825C499.774 135.86 501.113 136.377 502.068 137.682C503.022 138.995 503.136 138.417 505.867 140.475C508.598 142.534 509.097 142.227 510.9 143.278C512.712 144.329 511.609 146.352 511.145 147.963C510.672 149.584 507.74 153.621 507.74 153.621C507.74 153.621 506.348 157.037 505.464 157.413C504.58 157.781 505.779 161.232 505.692 162.178C505.604 163.123 508.353 166.005 508.353 166.005L513.412 167.923L515.793 166.005C515.793 166.005 523.785 163.036 524.258 162.178C524.722 161.319 521.903 157.343 522.743 157.413C523.584 157.492 528.687 153.621 528.687 153.621L532.206 150.784L534.788 152.675C534.788 152.675 540.811 155.548 542.439 156.459C544.067 157.369 547.367 154.952 549.704 154.567C552.042 154.182 549.363 149.846 549.363 149.846L544.312 147.963C544.312 147.963 541.756 146.65 540.434 145.152C539.121 143.655 536.513 141.413 536.513 141.413C536.513 141.413 531.252 139.302 530.28 139.547C529.309 139.801 526.236 139.004 525.334 138.619C524.433 138.225 521.527 137.253 520.284 135.834C519.041 134.415 517.483 133.758 516.423 132.129C515.364 130.509 517.334 126.603 517.334 126.603L523.076 121.112C523.076 121.112 526.017 122.758 526.761 122.023C527.505 121.296 532.819 122.023 532.819 122.023C532.819 122.023 534.482 123.906 535.419 124.764C536.364 125.622 536.959 126.787 539.305 128.433C541.66 130.08 543.209 132.12 543.209 132.12L544.295 130.273C544.295 130.273 548.111 127.934 548.89 126.594C549.669 125.254 555.044 123.617 557.101 122.933C559.158 122.25 564.297 120.166 565.356 120.192C566.415 120.218 575.195 122.014 575.195 122.014L580.368 125.675C580.368 125.675 587.047 127.365 589.122 128.433C591.205 129.502 595.976 131.14 600.291 133.749C604.633 136.351 616.914 138.12 616.949 138.706C616.975 139.302 628.959 147.026 628.959 147.026L628.626 144.215L632.084 142.341L631.314 135.825C631.314 135.825 631.217 129.397 631.646 128.442C632.075 127.488 644.671 115.034 646.772 113.843C648.873 112.66 655.526 108.211 656.769 107.528C658.012 106.845 664.927 105.733 664.927 105.733C664.927 105.733 665.943 107.082 668.91 108.43C671.877 109.779 679.423 108.781 680.929 108.43C682.425 108.08 682.075 108.781 680.657 106.635C679.248 104.489 682.793 104.84 682.793 104.84C682.793 104.84 685.585 107.082 686.662 106.635C687.73 106.188 693.446 103.946 693.446 103.946L695.424 101.266C695.424 101.266 698.164 100.61 701.263 100.373C704.362 100.145 709.491 99.4798 709.491 99.4798L711.146 95.0395L718 93.2704L716.512 91.5013L716.503 91.4838ZM152.311 549.767C151.401 549.25 150.727 547.359 149.817 545.572C148.906 543.785 150.569 543.908 150.324 541.386C150.079 538.872 149.256 540.729 147.506 539.993C145.764 539.258 146.079 538.881 146.35 537.217C146.63 535.553 149.834 533.609 149.834 533.066C149.834 532.531 148.416 531.244 147.199 530.307C145.974 529.37 146.035 532.295 145.37 533.066C144.705 533.836 143.041 533.609 142.394 533.066C141.746 532.531 141.081 531.682 141.081 531.682L136.441 533.066C136.441 533.066 133.299 532.295 132.152 531.682C131.014 531.078 134.463 527.574 135.653 527.548C136.844 527.522 137.317 526.173 137.317 526.173C137.317 526.173 139.505 525.744 141.947 524.798C144.381 523.852 142.858 521.584 142.464 520.691C142.07 519.806 143.059 517.687 142.98 516.601C142.893 515.515 142.219 513.299 142.017 512.528C141.816 511.758 138.962 510.216 137.938 509.822C136.914 509.428 134.699 512.791 134.463 513.886C134.235 514.989 128.195 516.601 128.195 516.601L125.421 515.243H119.512C119.512 515.243 118.847 513.816 116.746 513.886C114.645 513.956 115.529 511.495 114.356 509.822C113.192 508.149 112.22 507.125 111.975 505.776C111.739 504.427 111.677 500.986 111.266 500.399C110.846 499.812 110.539 499.208 109.795 500.399C109.051 501.59 106.513 499.97 105.585 499.059C104.657 498.148 100.639 498.192 99.7201 499.059C98.801 499.926 97.7593 500.732 96.3938 501.739C95.0282 502.746 94.1354 500.732 90.5202 501.739C86.905 502.746 87.8503 503.543 87.1763 504.427C86.4935 505.321 86.975 505.776 86.975 505.776L83.4123 509.822C83.4123 509.822 83.885 511.241 83.0009 512.528C82.108 513.816 81.2589 515.629 79.4207 516.601C77.5824 517.582 75.6217 512.528 75.6217 512.528C75.6217 512.528 69.8531 514.849 69.074 516.601C68.2949 518.352 68.6363 519.325 68.6363 519.325C68.6363 519.325 68.8202 521.321 68.1987 522.057C68.0498 522.232 68.0498 522.407 68.1286 522.565C67.9973 522.434 67.9273 522.337 67.9273 522.337C67.9273 522.337 66.4042 522.355 65.0124 523.423C63.6206 524.492 64.067 522.872 63.7519 522.057C63.4367 521.234 62.2025 518.729 62.9378 517.967C63.6643 517.205 60.2154 517.179 60.2067 516.601C60.1979 516.032 57.4318 518.729 55.0946 520.691C52.7487 522.661 55.2959 523.134 54.6394 523.423C53.9829 523.712 56.0312 525.481 55.4448 527.539C54.8495 529.598 53.2214 528.871 52.2497 528.914L48.0218 527.539L45.2819 526.164C45.2819 526.164 43.1898 529.659 43.0935 530.289C42.9972 530.92 41.3428 533.845 40.8964 534.432C40.4499 535.01 42.5858 536.481 43.4086 537.199C44.2227 537.918 44.8967 537.199 44.8967 537.199C44.8967 537.199 46.5424 538.338 47.6453 538.583C48.7483 538.837 50.4027 539.967 50.4027 539.967C50.4027 539.967 50.8754 541.237 53.1601 541.359C55.4448 541.482 55.6986 544.144 55.6986 544.144C55.6986 544.144 57.4931 546.001 56.7403 546.938C55.9875 547.875 58.2459 548.401 59.06 551.142C59.874 553.901 56.609 553.191 55.6023 553.953C54.5957 554.715 52.8537 553.463 52.8275 552.552C52.8012 551.641 50.8404 551.86 51.5582 551.151C52.276 550.433 50.6653 549.469 49.256 546.947C47.8467 544.433 48.8971 544.687 48.2231 544.153C47.5491 543.619 45.7021 541.368 45.7021 541.368L45.2294 544.153C45.2294 544.153 42.3407 548.138 41.5266 548.348C40.7126 548.558 44.3715 551.335 45.3169 552.561C46.2711 553.787 48.0655 554.812 49.1247 556.791C50.1839 558.77 48.5207 560.723 48.1881 562.448C47.8554 564.183 46.0347 565.304 45.7283 568.141C45.422 570.979 50.0526 565.312 50.7353 565.295C51.4181 565.286 55.7249 560.452 56.1888 559.62C56.6527 558.788 57.992 558.84 60.9332 558.21C63.8832 557.57 63.603 555.889 64.3909 555.381C65.1787 554.873 65.6689 556.791 65.6689 556.791C65.6689 556.791 66.483 559.374 66.5092 561.03C66.5355 562.685 64.3383 562.063 63.0428 563.867C61.7473 565.671 67.3496 565.286 67.3496 565.286C67.3496 565.286 74.0635 562.335 75.5604 561.03C77.0572 559.725 77.136 557.229 76.2081 556.791C75.2803 556.353 75.4641 555.083 73.6346 553.971C71.8051 552.859 67.3408 552.14 66.3429 552.57C65.345 552.99 68.9427 549.215 68.505 548.357C68.0673 547.507 68.7239 546.956 68.7239 546.956C68.7239 546.956 66.6405 545.756 65.949 545.554C65.6426 545.467 65.0299 545.458 64.4346 545.476C64.5572 545.467 64.6972 545.449 64.8461 545.441C67.2095 545.248 68.7239 546.956 68.7239 546.956C68.7239 546.956 69.4417 546.019 69.1615 544.162C68.8814 542.305 67.5071 542.043 66.6143 541.377C65.7214 540.711 66.9119 540.457 67.0519 538.601C67.2008 536.744 68.33 538.618 70.2557 537.217C71.9101 536.017 71.9802 535.859 71.9714 535.833C71.9977 535.859 73.0569 536.805 74.0723 536.998C75.1052 537.191 74.8513 537.646 75.8317 537.313C76.0331 537.243 76.1994 537.129 76.3482 537.007C76.2782 537.121 76.2256 537.208 76.2256 537.208L77.5037 538.592C77.5037 538.592 79.3332 539.135 78.7817 539.976C78.2302 540.825 79.6395 544.153 79.6395 544.153C79.6395 544.153 80.3223 546.842 80.5236 547.963C80.76 547.289 81.8192 546.089 82.9921 544.81C81.2677 547.087 80.6987 547.753 80.5324 548.059C80.5324 548.024 80.5236 547.998 80.5149 547.963C80.4711 548.086 80.4624 548.191 80.4799 548.278C80.4799 548.304 80.4799 548.331 80.4886 548.357C80.865 550.135 81.5653 550.853 82.8521 552.57C84.1388 554.286 84.1564 554.61 85.4344 555.381C86.7211 556.16 87.4127 556.765 86.5198 558.21C85.6269 559.655 85.697 561.494 84.3752 562.457C83.0534 563.421 76.1819 566.722 76.1819 566.722C76.1819 566.722 81.8367 568.132 83.7449 566.722C85.6444 565.312 89.0846 562.983 88.6994 563.876C88.3143 564.769 87.9641 565.68 86.7737 566.722C85.5744 567.765 83.5261 568.404 83.3248 569.577C83.1234 570.751 81.8804 572.643 81.1626 573.869C80.4449 575.104 78.7817 579.614 78.7817 579.614C78.7817 579.614 78.6679 582.381 76.602 583.94C74.5362 585.508 72.2866 585.14 71.5863 586.839C70.886 588.538 69.3891 591.192 69.3891 591.192C69.3891 591.192 67.262 591.297 66.3342 591.192C65.4063 591.087 63.0516 592.129 61.5197 592.646C59.9878 593.171 58.4647 592.646 58.4647 592.646L59.5326 595.562L59.0687 598.487C59.0687 598.487 59.8828 599.354 60.373 599.95C60.8632 600.554 60.1454 603.26 59.6815 604.364C59.2175 605.467 56.1363 607.315 56.1363 607.315C56.1363 607.315 57.6682 609.706 58.7448 610.275C59.8303 610.836 61.6335 612.526 61.3621 613.235C61.0995 613.945 63.8569 617.045 63.7606 617.693C63.6556 618.35 63.6293 620.435 63.0691 622.169C62.5089 623.903 60.8369 623.281 59.5064 625.164C58.1671 627.055 58.8061 629.674 58.8061 629.674L52.8275 628.168C50.6916 627.625 51.033 629.674 51.033 629.674C51.033 629.674 53.4139 632.135 53.6678 632.687C54.1055 633.633 53.8516 638.397 54.2718 638.738C54.7357 639.115 58.9549 638.738 58.9549 638.738C58.9549 638.738 65.6864 637.889 66.9907 637.223C68.2949 636.558 68.0936 640.254 68.0936 640.254C68.0936 640.254 68.505 642.793 69.1966 643.301C69.8881 643.801 74.4487 642.802 75.6742 641.777C76.8997 640.762 75.8492 639.334 76.1206 638.738C76.392 638.143 74.3611 637.311 73.2232 637.223C72.0852 637.127 73.906 634.438 72.3478 632.687C70.7897 630.935 73.0306 630.427 72.803 629.674C72.5754 628.921 72.3216 627.283 71.9277 625.164C71.5337 623.053 73.7046 623.666 73.7046 623.666C73.7046 623.666 75.8317 621.573 75.7004 620.671C75.5691 619.778 78.3527 613.227 78.3527 613.227L81.6616 611.747C81.6616 611.747 83.885 612.798 84.3139 614.716C84.7428 616.634 87.1938 616.204 87.1938 616.204L85.2155 619.182C85.2155 619.182 84.454 621.004 83.4473 620.671C82.4407 620.338 82.1168 619.182 82.1168 619.182H77.4774L76.8121 623.666H83.0096C83.0096 623.666 82.1868 626.425 82.3531 628.168C82.5194 629.911 83.4736 631.18 83.4736 631.18L82.5982 637.232C82.5982 637.232 80.6462 641.068 80.3748 641.786C80.156 642.364 78.7029 644.37 78.379 644.808C78.379 644.808 78.379 644.808 78.3703 644.825C78.3352 644.869 78.309 644.904 78.309 644.904C78.309 644.904 78.3352 644.86 78.379 644.808C78.3615 644.79 73.7396 650.614 74.3349 650.947C75.1139 651.394 77.4686 650.947 77.4686 650.947L81.0488 647.882L84.4014 646.349C84.4014 646.349 85.3293 647.724 87.5352 646.349C89.7324 644.974 90.6865 643.669 92.8749 641.777C95.0633 639.895 94.7394 640.192 96.21 640.254C97.6893 640.315 97.7681 640.254 97.7681 640.254C97.7681 640.254 98.8623 635.139 98.6084 634.193C98.4509 633.615 95.7023 632.678 95.7023 632.678C95.7023 632.678 96.0962 630.419 96.1224 629.665C96.1487 628.912 98.4771 628.133 99.44 628.159C100.403 628.185 104.395 629.911 104.246 629.28C103.983 628.176 104.491 624.945 104.657 623.955C104.596 624.446 104.535 624.866 104.508 625.146C104.114 628.527 104.246 629.271 104.246 629.271C104.246 629.271 109.156 632.126 111.467 631.154C113.77 630.191 112.868 628.684 113.621 626.644C114.374 624.603 114.514 622.974 114.216 622.151C113.918 621.328 115.765 620.137 117.709 619.165C119.643 618.193 118.68 611.729 118.68 611.729C118.68 611.729 121.28 600.449 121.954 598.47C122.628 596.499 124.151 596.28 124.055 594.082C123.959 591.893 127.495 588.503 128.23 585.359C128.966 582.224 130.112 581.628 130.489 579.588C130.874 577.547 134.971 572.897 135.951 572.406C136.94 571.916 135.697 569.358 136.31 569.551C136.923 569.735 139.269 566.118 139.873 565.277C140.477 564.436 142.289 562.589 143.243 562.44C144.197 562.282 147.191 557.492 148.241 556.441C148.381 556.3 148.372 556.248 148.25 556.257C148.897 555.985 149.396 555.731 150.123 555.363C151.13 554.855 153.878 551.86 153.633 551.142C153.388 550.424 153.213 550.257 152.303 549.741L152.311 549.767ZM73.1444 576.733C73.9585 576.19 76.6196 573.86 76.6196 573.86L77.0572 570.996H72.5141C72.5141 570.996 70.956 571.285 69.2578 572.424C67.5596 573.571 67.297 575.288 67.297 575.288L68.365 578.16C68.365 578.16 72.3303 577.267 73.1444 576.724V576.733ZM281.286 503.087C280.577 503.14 280.236 499.978 280.069 499.068C279.912 498.157 279.64 496.169 278.861 495.056C278.082 493.953 277.286 493.883 276.113 492.394C274.94 490.905 278.739 488.584 279.378 487.087C280.008 485.589 279.465 485.764 279.465 485.764L273.81 483.119L272.27 484.442C272.27 484.442 269.127 483.312 267.989 483.119C266.851 482.936 264.313 481.035 263.814 480.483C263.315 479.932 258.29 476.542 258.29 476.542C258.29 476.542 256.618 476.542 255.288 477.856C253.957 479.17 252.11 477.786 249.484 477.856C246.85 477.917 246.762 475.798 245.134 477.856C243.497 479.923 239.715 481.035 238.998 481.797C238.28 482.559 233.063 483.111 233.063 483.111C233.063 483.111 235.164 485.808 235.75 485.756C236.337 485.703 234.393 488.322 232.494 489.732C230.594 491.142 232.152 493.725 232.152 493.725L234.875 495.013C234.875 495.013 234.822 495.048 234.796 495.065C234.796 495.03 234.787 495.004 234.778 494.969L232.144 493.725C232.144 493.725 227.198 497.439 225.937 497.728C224.677 498.017 219.469 496.668 218.733 496.388C217.998 496.107 215.363 498.954 212.623 499.068C209.883 499.173 208.57 497.185 208.483 496.388C208.395 495.599 204.465 490.844 203.283 489.732C202.11 488.619 201.953 488.4 201.953 488.4L198.495 493.716C198.495 493.716 195.449 494.636 195.431 495.048C195.423 495.459 193.488 497.421 193.558 499.059C193.628 500.697 191.527 500.224 190.486 500.399C189.444 500.574 189.584 508.149 189.496 509.822C189.409 511.504 186.433 511.504 184.787 512.528C183.141 513.562 181.417 513.816 180.218 513.886C179.01 513.956 176.559 517.17 176.961 516.601C177.364 516.032 173.705 519.325 173.705 519.325L167.63 520.691L159.586 526.173L160.907 527.548C160.907 527.548 164.89 525.744 165.52 526.173C166.151 526.602 169.118 523.406 170.44 522.066C171.762 520.726 173.407 522.066 173.407 522.066H174.887L173.101 524.807L172.795 527.557C172.795 527.557 173.495 529.676 173.819 531.691C174.143 533.705 176.944 530.316 176.944 530.316L178.134 533.074L174.852 535.842L173.057 538.618C173.057 538.618 174.677 542.069 174.09 542.796C173.504 543.523 173.933 544.188 173.933 544.188C173.933 544.188 175.771 547.639 177.968 548.383C180.165 549.128 183.964 548.383 183.964 548.383C183.964 548.383 185.163 545.756 185.724 544.118C185.54 544.854 185.312 545.677 185.19 545.984C184.734 547.052 183.964 548.383 183.964 548.383L183.518 552.596L180.06 556.826H184.577L185.785 559.655C185.785 559.655 189.514 560.758 190.31 559.655C191.098 558.551 193.462 558.245 193.462 558.245C192.823 558.411 199.353 559.952 200.858 559.655C202.364 559.357 197.716 556.195 196.753 555.416C195.79 554.645 197.033 552.605 197.033 552.605C197.033 552.605 198.136 551.913 198.679 551.203C199.213 550.485 199.204 549.784 198.959 548.401C198.705 547.017 199.887 545.8 202.233 545.598C204.57 545.406 203.817 543.409 204.132 541.412C204.447 539.424 204.876 541.289 205.76 540.02C206.645 538.758 208.894 537.856 210.636 535.859C212.369 533.871 213.052 532.847 212.641 530.333C212.518 529.58 212.431 529.23 212.387 529.072C212.352 529.028 212.334 528.967 212.343 528.967C212.343 528.967 212.361 529.002 212.387 529.072C212.448 529.151 212.579 529.212 212.772 528.95C213.332 528.205 214.514 526.2 214.514 526.2C214.514 526.2 219.932 525.516 220.58 524.825C221.219 524.141 222.313 524.203 222.182 523.458C222.06 522.705 223.364 521.873 225.386 520.726C227.408 519.579 229.815 519.018 229.946 519.36C230.078 519.701 234.498 517.993 234.498 517.993C234.498 517.993 237.361 519.535 240.302 519.36C243.243 519.184 243.961 521.356 244.53 522.092C245.099 522.828 246.683 522.653 248.767 524.833C250.859 527.014 249.441 527.084 251.323 530.333C253.205 533.591 254.089 533.092 254.089 533.092C254.089 533.092 255.822 532.584 255.682 531.708C255.542 530.841 256.68 528.652 257.468 527.575C258.255 526.506 259.875 523.432 260.829 522.092C261.783 520.761 264.234 518.011 264.252 517.985C265.022 517.713 266.484 514.333 267.324 513.912C268.226 513.466 270.257 511.521 271.937 511.197C273.609 510.873 273.793 508.938 275.15 507.142C276.498 505.347 282.678 504.445 282.678 504.445C282.678 504.445 282.004 503.044 281.295 503.096L281.286 503.087ZM51.9959 585.385C51.3481 586.095 53.055 588.284 53.055 588.284C53.055 588.284 56.6352 586.874 58.0971 585.385C59.5502 583.897 60.8107 582.478 61.6072 582.495C62.3951 582.513 63.5855 579.614 63.5855 579.614C63.5855 579.614 65.1962 576.733 65.7827 575.305C66.3692 573.869 65.345 572.108 64.9423 571.005C64.5397 569.901 64.3734 569.122 63.6556 569.577C62.929 570.033 62.1412 569.577 62.1412 569.577C62.1412 569.577 59.5152 570.751 57.1342 572.432C54.7532 574.123 54.9195 576.733 54.9195 576.733L54.2193 581.05C54.2193 581.05 52.6436 584.676 51.9959 585.385Z" fill="#23377F"/>
</g>
<path d="M478.74 420.921C482.602 420.921 485.734 417.788 485.734 413.923C485.734 410.059 482.602 406.926 478.74 406.926C474.877 406.926 471.746 410.059 471.746 413.923C471.746 417.788 474.877 420.921 478.74 420.921Z" fill="#F18D1E"/>
<path fill-rule="evenodd" clip-rule="evenodd" d="M478.74 397.246C469.534 397.246 462.072 404.712 462.072 413.922C462.072 423.132 469.534 430.599 478.74 430.599C487.945 430.599 495.408 423.132 495.408 413.922C495.408 404.712 487.945 397.246 478.74 397.246ZM461.672 413.922C461.672 404.491 469.313 396.846 478.74 396.846C488.166 396.846 495.808 404.491 495.808 413.922C495.808 423.353 488.166 430.999 478.74 430.999C469.313 430.999 461.672 423.353 461.672 413.922Z" fill="url(#paint0_linear_155_13722)"/>
<path fill-rule="evenodd" clip-rule="evenodd" d="M478.74 386.228C463.453 386.228 451.06 398.627 451.06 413.922C451.06 429.217 463.453 441.616 478.74 441.616C494.027 441.616 506.42 429.217 506.42 413.922C506.42 398.627 494.027 386.228 478.74 386.228ZM450.66 413.922C450.66 398.406 463.231 385.828 478.74 385.828C494.248 385.828 506.82 398.406 506.82 413.922C506.82 429.438 494.248 442.016 478.74 442.016C463.231 442.016 450.66 429.438 450.66 413.922Z" fill="url(#paint1_linear_155_13722)"/>
<path fill-rule="evenodd" clip-rule="evenodd" d="M478.74 369.529C454.233 369.529 434.367 389.405 434.367 413.924C434.367 438.443 454.233 458.319 478.74 458.319C503.246 458.319 523.113 438.443 523.113 413.924C523.113 389.405 503.246 369.529 478.74 369.529ZM433.967 413.924C433.967 389.184 454.012 369.129 478.74 369.129C503.467 369.129 523.513 389.184 523.513 413.924C523.513 438.664 503.467 458.719 478.74 458.719C454.012 458.719 433.967 438.664 433.967 413.924Z" fill="url(#paint2_linear_155_13722)"/>
<path opacity="0.05" d="M478.74 484.329C517.604 484.329 549.109 452.808 549.109 413.924C549.109 375.041 517.604 343.52 478.74 343.52C439.876 343.52 408.37 375.041 408.37 413.924C408.37 452.808 439.876 484.329 478.74 484.329Z" fill="#F18D1E"/>
<path opacity="0.05" d="M478.74 484.329C517.604 484.329 549.109 452.808 549.109 413.924C549.109 375.041 517.604 343.52 478.74 343.52C439.876 343.52 408.37 375.041 408.37 413.924C408.37 452.808 439.876 484.329 478.74 484.329Z" fill="#F18D1E"/>
<path d="M532.241 270.478C536.104 270.478 539.235 267.345 539.235 263.48C539.235 259.615 536.104 256.482 532.241 256.482C528.378 256.482 525.247 259.615 525.247 263.48C525.247 267.345 528.378 270.478 532.241 270.478Z" fill="#F18D1E"/>
<path fill-rule="evenodd" clip-rule="evenodd" d="M532.241 246.802C523.036 246.802 515.573 254.269 515.573 263.479C515.573 272.689 523.036 280.155 532.241 280.155C541.447 280.155 548.909 272.689 548.909 263.479C548.909 254.269 541.447 246.802 532.241 246.802ZM515.173 263.479C515.173 254.048 522.815 246.402 532.241 246.402C541.668 246.402 549.309 254.048 549.309 263.479C549.309 272.91 541.668 280.555 532.241 280.555C522.815 280.555 515.173 272.91 515.173 263.479Z" fill="url(#paint3_linear_155_13722)"/>
<path fill-rule="evenodd" clip-rule="evenodd" d="M532.241 235.785C516.954 235.785 504.561 248.184 504.561 263.479C504.561 278.774 516.954 291.173 532.241 291.173C547.528 291.173 559.921 278.774 559.921 263.479C559.921 248.184 547.528 235.785 532.241 235.785ZM504.161 263.479C504.161 247.963 516.733 235.385 532.241 235.385C547.749 235.385 560.321 247.963 560.321 263.479C560.321 278.994 547.749 291.573 532.241 291.573C516.733 291.573 504.161 278.994 504.161 263.479Z" fill="url(#paint4_linear_155_13722)"/>
<path opacity="0.05" d="M532.241 308.075C556.858 308.075 576.814 288.109 576.814 263.48C576.814 238.851 556.858 218.885 532.241 218.885C507.624 218.885 487.668 238.851 487.668 263.48C487.668 288.109 507.624 308.075 532.241 308.075Z" fill="#F18D1E"/>
<path d="M549.109 221.697C550.656 221.697 551.91 220.442 551.91 218.894C551.91 217.347 550.656 216.092 549.109 216.092C547.562 216.092 546.308 217.347 546.308 218.894C546.308 220.442 547.562 221.697 549.109 221.697Z" fill="#F18D1E"/>
<path d="M546.308 249.416C547.855 249.416 549.11 248.161 549.11 246.613C549.11 245.065 547.855 243.811 546.308 243.811C544.761 243.811 543.507 245.065 543.507 246.613C543.507 248.161 544.761 249.416 546.308 249.416Z" fill="#F18D1E"/>
<path d="M546.308 285.412C547.855 285.412 549.11 284.157 549.11 282.609C549.11 281.061 547.855 279.807 546.308 279.807C544.761 279.807 543.507 281.061 543.507 282.609C543.507 284.157 544.761 285.412 546.308 285.412Z" fill="#F18D1E"/>
<path d="M461.871 386.029C463.418 386.029 464.673 384.774 464.673 383.226C464.673 381.679 463.418 380.424 461.871 380.424C460.324 380.424 459.07 381.679 459.07 383.226C459.07 384.774 460.324 386.029 461.871 386.029Z" fill="#F18D1E"/>
<path d="M471.745 397.048C473.293 397.048 474.547 395.794 474.547 394.246C474.547 392.698 473.293 391.443 471.745 391.443C470.198 391.443 468.944 392.698 468.944 394.246C468.944 395.794 470.198 397.048 471.745 397.048Z" fill="#F18D1E"/>
<path d="M528.626 409.728C530.173 409.728 531.427 408.473 531.427 406.926C531.427 405.378 530.173 404.123 528.626 404.123C527.079 404.123 525.825 405.378 525.825 406.926C525.825 408.473 527.079 409.728 528.626 409.728Z" fill="#F18D1E"/>
<path d="M523.313 430.449C524.86 430.449 526.114 429.194 526.114 427.646C526.114 426.098 524.86 424.844 523.313 424.844C521.766 424.844 520.512 426.098 520.512 427.646C520.512 429.194 521.766 430.449 523.313 430.449Z" fill="#F18D1E"/>
<path d="M442.185 419.431C443.732 419.431 444.986 418.177 444.986 416.629C444.986 415.081 443.732 413.826 442.185 413.826C440.638 413.826 439.384 415.081 439.384 416.629C439.384 418.177 440.638 419.431 442.185 419.431Z" fill="#F18D1E"/>
<path d="M427.155 409.728C428.702 409.728 429.956 408.473 429.956 406.926C429.956 405.378 428.702 404.123 427.155 404.123C425.608 404.123 424.354 405.378 424.354 406.926C424.354 408.473 425.608 409.728 427.155 409.728Z" fill="#F18D1E"/>
<path d="M379.273 440.33C380.82 440.33 382.074 439.075 382.074 437.527C382.074 435.979 380.82 434.725 379.273 434.725C377.726 434.725 376.472 435.979 376.472 437.527C376.472 439.075 377.726 440.33 379.273 440.33Z" fill="#F18D1E"/>
<path d="M506.619 324.724C508.166 324.724 509.421 323.469 509.421 321.922C509.421 320.374 508.166 319.119 506.619 319.119C505.072 319.119 503.818 320.374 503.818 321.922C503.818 323.469 505.072 324.724 506.619 324.724Z" fill="#F18D1E"/>
<path d="M189.243 471.795C190.79 471.795 192.044 470.54 192.044 468.992C192.044 467.444 190.79 466.189 189.243 466.189C187.696 466.189 186.442 467.444 186.442 468.992C186.442 470.54 187.696 471.795 189.243 471.795Z" fill="#F18D1E"/>
<path d="M225.456 454.675C227.003 454.675 228.257 453.421 228.257 451.873C228.257 450.325 227.003 449.07 225.456 449.07C223.909 449.07 222.655 450.325 222.655 451.873C222.655 453.421 223.909 454.675 225.456 454.675Z" fill="#F18D1E"/>
<path d="M395.143 448.587C399.006 448.587 402.138 445.454 402.138 441.589C402.138 437.725 399.006 434.592 395.143 434.592C391.281 434.592 388.149 437.725 388.149 441.589C388.149 445.454 391.281 448.587 395.143 448.587Z" fill="#F18D1E"/>
<path fill-rule="evenodd" clip-rule="evenodd" d="M395.143 424.914C385.938 424.914 378.475 432.38 378.475 441.59C378.475 450.8 385.938 458.267 395.143 458.267C404.349 458.267 411.811 450.8 411.811 441.59C411.811 432.38 404.349 424.914 395.143 424.914ZM378.075 441.59C378.075 432.159 385.717 424.514 395.143 424.514C404.57 424.514 412.211 432.159 412.211 441.59C412.211 451.021 404.57 458.667 395.143 458.667C385.717 458.667 378.075 451.021 378.075 441.59Z" fill="url(#paint5_linear_155_13722)"/>
<path fill-rule="evenodd" clip-rule="evenodd" d="M395.143 413.896C379.856 413.896 367.463 426.295 367.463 441.59C367.463 456.885 379.856 469.284 395.143 469.284C410.431 469.284 422.823 456.885 422.823 441.59C422.823 426.295 410.431 413.896 395.143 413.896ZM367.063 441.59C367.063 426.074 379.635 413.496 395.143 413.496C410.652 413.496 423.223 426.074 423.223 441.59C423.223 457.106 410.652 469.684 395.143 469.684C379.635 469.684 367.063 457.106 367.063 441.59Z" fill="url(#paint6_linear_155_13722)"/>
<path opacity="0.05" d="M395.143 486.187C419.76 486.187 439.716 466.221 439.716 441.591C439.716 416.962 419.76 396.996 395.143 396.996C370.526 396.996 350.57 416.962 350.57 441.591C350.57 466.221 370.526 486.187 395.143 486.187Z" fill="#F18D1E"/>
<path d="M334.7 451.522C338.563 451.522 341.694 448.39 341.694 444.525C341.694 440.66 338.563 437.527 334.7 437.527C330.838 437.527 327.706 440.66 327.706 444.525C327.706 448.39 330.838 451.522 334.7 451.522Z" fill="#F18D1E"/>
<path fill-rule="evenodd" clip-rule="evenodd" d="M334.7 427.847C325.495 427.847 318.032 435.313 318.032 444.524C318.032 453.734 325.495 461.2 334.7 461.2C343.906 461.2 351.368 453.734 351.368 444.524C351.368 435.313 343.906 427.847 334.7 427.847ZM317.632 444.524C317.632 435.093 325.274 427.447 334.7 427.447C344.127 427.447 351.768 435.093 351.768 444.524C351.768 453.955 344.127 461.6 334.7 461.6C325.274 461.6 317.632 453.955 317.632 444.524Z" fill="url(#paint7_linear_155_13722)"/>
<path fill-rule="evenodd" clip-rule="evenodd" d="M334.7 416.83C319.413 416.83 307.02 429.229 307.02 444.524C307.02 459.819 319.413 472.218 334.7 472.218C349.987 472.218 362.38 459.819 362.38 444.524C362.38 429.229 349.987 416.83 334.7 416.83ZM306.62 444.524C306.62 429.008 319.192 416.43 334.7 416.43C350.208 416.43 362.78 429.008 362.78 444.524C362.78 460.039 350.208 472.618 334.7 472.618C319.192 472.618 306.62 460.039 306.62 444.524Z" fill="url(#paint8_linear_155_13722)"/>
<path opacity="0.05" d="M334.7 489.118C359.317 489.118 379.273 469.152 379.273 444.523C379.273 419.894 359.317 399.928 334.7 399.928C310.083 399.928 290.127 419.894 290.127 444.523C290.127 469.152 310.083 489.118 334.7 489.118Z" fill="#F18D1E"/>
<path d="M211.38 475.745C215.243 475.745 218.374 472.612 218.374 468.748C218.374 464.883 215.243 461.75 211.38 461.75C207.518 461.75 204.386 464.883 204.386 468.748C204.386 472.612 207.518 475.745 211.38 475.745Z" fill="#F18D1E"/>
<path fill-rule="evenodd" clip-rule="evenodd" d="M211.38 452.074C202.175 452.074 194.712 459.54 194.712 468.75C194.712 477.961 202.175 485.427 211.38 485.427C220.586 485.427 228.048 477.961 228.048 468.75C228.048 459.54 220.586 452.074 211.38 452.074ZM194.312 468.75C194.312 459.319 201.954 451.674 211.38 451.674C220.807 451.674 228.448 459.319 228.448 468.75C228.448 478.181 220.807 485.827 211.38 485.827C201.954 485.827 194.312 478.181 194.312 468.75Z" fill="url(#paint9_linear_155_13722)"/>
<path fill-rule="evenodd" clip-rule="evenodd" d="M211.381 441.056C196.093 441.056 183.701 453.455 183.701 468.75C183.701 484.045 196.093 496.444 211.381 496.444C226.668 496.444 239.061 484.045 239.061 468.75C239.061 453.455 226.668 441.056 211.381 441.056ZM183.301 468.75C183.301 453.234 195.872 440.656 211.381 440.656C226.889 440.656 239.461 453.234 239.461 468.75C239.461 484.266 226.889 496.844 211.381 496.844C195.872 496.844 183.301 484.266 183.301 468.75Z" fill="url(#paint10_linear_155_13722)"/>
<path opacity="0.05" d="M211.38 513.345C235.997 513.345 255.953 493.379 255.953 468.75C255.953 444.12 235.997 424.154 211.38 424.154C186.763 424.154 166.807 444.12 166.807 468.75C166.807 493.379 186.763 513.345 211.38 513.345Z" fill="#F18D1E"/>
<path d="M96.674 558.542C100.537 558.542 103.668 555.409 103.668 551.544C103.668 547.68 100.537 544.547 96.674 544.547C92.8113 544.547 89.6799 547.68 89.6799 551.544C89.6799 555.409 92.8113 558.542 96.674 558.542Z" fill="#F18D1E"/>
<path fill-rule="evenodd" clip-rule="evenodd" d="M96.674 534.869C87.4686 534.869 80.006 542.335 80.006 551.545C80.006 560.755 87.4686 568.222 96.674 568.222C105.879 568.222 113.342 560.755 113.342 551.545C113.342 542.335 105.879 534.869 96.674 534.869ZM79.606 551.545C79.606 542.114 87.2475 534.469 96.674 534.469C106.101 534.469 113.742 542.114 113.742 551.545C113.742 560.976 106.101 568.622 96.674 568.622C87.2475 568.622 79.606 560.976 79.606 551.545Z" fill="url(#paint11_linear_155_13722)"/>
<path fill-rule="evenodd" clip-rule="evenodd" d="M96.6743 523.851C81.3871 523.851 68.9942 536.25 68.9942 551.545C68.9942 566.84 81.3871 579.239 96.6743 579.239C111.961 579.239 124.354 566.84 124.354 551.545C124.354 536.25 111.961 523.851 96.6743 523.851ZM68.5942 551.545C68.5942 536.029 81.166 523.451 96.6743 523.451C112.183 523.451 124.754 536.029 124.754 551.545C124.754 567.061 112.183 579.639 96.6743 579.639C81.166 579.639 68.5942 567.061 68.5942 551.545Z" fill="url(#paint12_linear_155_13722)"/>
<path opacity="0.05" d="M96.6741 596.14C121.291 596.14 141.247 576.174 141.247 551.544C141.247 526.915 121.291 506.949 96.6741 506.949C72.0571 506.949 52.1011 526.915 52.1011 551.544C52.1011 576.174 72.0571 596.14 96.6741 596.14Z" fill="#F18D1E"/>
<path d="M35.6532 688.745C39.516 688.745 42.6473 685.612 42.6473 681.748C42.6473 677.883 39.516 674.75 35.6532 674.75C31.7905 674.75 28.6592 677.883 28.6592 681.748C28.6592 685.612 31.7905 688.745 35.6532 688.745Z" fill="#F18D1E"/>
<path fill-rule="evenodd" clip-rule="evenodd" d="M35.6533 665.072C26.4478 665.072 18.9852 672.538 18.9852 681.748C18.9852 690.959 26.4478 698.425 35.6533 698.425C44.8587 698.425 52.3213 690.959 52.3213 681.748C52.3213 672.538 44.8587 665.072 35.6533 665.072ZM18.5852 681.748C18.5852 672.317 26.2267 664.672 35.6533 664.672C45.0798 664.672 52.7213 672.317 52.7213 681.748C52.7213 691.179 45.0798 698.825 35.6533 698.825C26.2267 698.825 18.5852 691.179 18.5852 681.748Z" fill="url(#paint13_linear_155_13722)"/>
<path fill-rule="evenodd" clip-rule="evenodd" d="M35.6533 654.052C20.3661 654.052 7.97324 666.451 7.97324 681.746C7.97324 697.041 20.3661 709.44 35.6533 709.44C50.9404 709.44 63.3333 697.041 63.3333 681.746C63.3333 666.451 50.9404 654.052 35.6533 654.052ZM7.57324 681.746C7.57324 666.23 20.145 653.652 35.6533 653.652C51.1615 653.652 63.7333 666.23 63.7333 681.746C63.7333 697.262 51.1615 709.84 35.6533 709.84C20.145 709.84 7.57324 697.262 7.57324 681.746Z" fill="url(#paint14_linear_155_13722)"/>
<path opacity="0.05" d="M35.6531 717.42C55.3438 717.42 71.3063 701.45 71.3063 681.749C71.3063 662.049 55.3438 646.078 35.6531 646.078C15.9625 646.078 0 662.049 0 681.749C0 701.45 15.9625 717.42 35.6531 717.42Z" fill="#F18D1E"/>
<path d="M96.6742 588.668C98.2212 588.668 99.4753 587.413 99.4753 585.865C99.4753 584.317 98.2212 583.062 96.6742 583.062C95.1272 583.062 93.873 584.317 93.873 585.865C93.873 587.413 95.1272 588.668 96.6742 588.668Z" fill="#F18D1E"/>
<path d="M106.627 535.212C108.174 535.212 109.428 533.958 109.428 532.41C109.428 530.862 108.174 529.607 106.627 529.607C105.08 529.607 103.826 530.862 103.826 532.41C103.826 533.958 105.08 535.212 106.627 535.212Z" fill="#F18D1E"/>
<path d="M116.334 561.343C117.881 561.343 119.135 560.089 119.135 558.541C119.135 556.993 117.881 555.738 116.334 555.738C114.787 555.738 113.533 556.993 113.533 558.541C113.533 560.089 114.787 561.343 116.334 561.343Z" fill="#F18D1E"/>
<path d="M222.655 507.205C224.202 507.205 225.456 505.95 225.456 504.402C225.456 502.854 224.202 501.6 222.655 501.6C221.108 501.6 219.854 502.854 219.854 504.402C219.854 505.95 221.108 507.205 222.655 507.205Z" fill="#F18D1E"/>
<path d="M313.123 444.619C314.67 444.619 315.924 443.364 315.924 441.816C315.924 440.268 314.67 439.014 313.123 439.014C311.576 439.014 310.322 440.268 310.322 441.816C310.322 443.364 311.576 444.619 313.123 444.619Z" fill="#F18D1E"/>
<path d="M355.437 455.541C356.984 455.541 358.238 454.286 358.238 452.738C358.238 451.19 356.984 449.936 355.437 449.936C353.89 449.936 352.636 451.19 352.636 452.738C352.636 454.286 353.89 455.541 355.437 455.541Z" fill="#F18D1E"/>
<path d="M344.495 485.677C346.042 485.677 347.297 484.423 347.297 482.875C347.297 481.327 346.042 480.072 344.495 480.072C342.948 480.072 341.694 481.327 341.694 482.875C341.694 484.423 342.948 485.677 344.495 485.677Z" fill="#F18D1E"/>
<path d="M243.594 492.447C245.141 492.447 246.395 491.192 246.395 489.644C246.395 488.097 245.141 486.842 243.594 486.842C242.047 486.842 240.792 488.097 240.792 489.644C240.792 491.192 242.047 492.447 243.594 492.447Z" fill="#F18D1E"/>
<path fill-rule="evenodd" clip-rule="evenodd" d="M400.241 448.792L401.145 448.365L454.258 560.775H512.493V561.775H453.624L400.241 448.792Z" fill="#808080"/>
<path fill-rule="evenodd" clip-rule="evenodd" d="M218.9 323.586H277.769L331.143 436.56L330.239 436.987L277.136 324.586H218.9V323.586Z" fill="#808080"/>
<path fill-rule="evenodd" clip-rule="evenodd" d="M124.554 411.453H183.409L209.521 461.124L208.636 461.589L182.805 412.453H124.554V411.453Z" fill="#808080"/>
<path fill-rule="evenodd" clip-rule="evenodd" d="M482.288 423.718L483.192 423.291L510.683 481.472H568.918V482.472H510.049L482.288 423.718Z" fill="#808080"/>
<path fill-rule="evenodd" clip-rule="evenodd" d="M98.7256 561.56L99.6298 561.133L138.106 642.575H196.351V643.575H137.473L98.7256 561.56Z" fill="#808080"/>
<path fill-rule="evenodd" clip-rule="evenodd" d="M38.8076 688.066L39.7118 687.639L56.6108 723.4H114.846V724.4H55.9773L38.8076 688.066Z" fill="#808080"/>
<path fill-rule="evenodd" clip-rule="evenodd" d="M535.763 272.757L536.667 272.33L564.149 330.503H622.385V331.503H563.516L535.763 272.757Z" fill="#808080"/>
<path d="M583.152 78.3037C587.015 78.3037 590.146 75.1708 590.146 71.3062C590.146 67.4415 587.015 64.3086 583.152 64.3086C579.289 64.3086 576.158 67.4415 576.158 71.3062C576.158 75.1708 579.289 78.3037 583.152 78.3037Z" fill="#F18D1E"/>
<path fill-rule="evenodd" clip-rule="evenodd" d="M583.152 54.6285C573.947 54.6285 566.484 62.0947 566.484 71.305C566.484 80.5152 573.947 87.9815 583.152 87.9815C592.357 87.9815 599.82 80.5152 599.82 71.305C599.82 62.0947 592.357 54.6285 583.152 54.6285ZM566.084 71.305C566.084 61.874 573.725 54.2285 583.152 54.2285C592.579 54.2285 600.22 61.874 600.22 71.305C600.22 80.736 592.579 88.3815 583.152 88.3815C573.725 88.3815 566.084 80.736 566.084 71.305Z" fill="url(#paint15_linear_155_13722)"/>
<path fill-rule="evenodd" clip-rule="evenodd" d="M583.152 43.6129C567.865 43.6129 555.472 56.0118 555.472 71.3068C555.472 86.6018 567.865 99.0007 583.152 99.0007C598.439 99.0007 610.832 86.6018 610.832 71.3068C610.832 56.0118 598.439 43.6129 583.152 43.6129ZM555.072 71.3068C555.072 55.7911 567.644 43.2129 583.152 43.2129C598.66 43.2129 611.232 55.7911 611.232 71.3068C611.232 86.8225 598.66 99.4007 583.152 99.4007C567.644 99.4007 555.072 86.8225 555.072 71.3068Z" fill="url(#paint16_linear_155_13722)"/>
<path fill-rule="evenodd" clip-rule="evenodd" d="M583.152 26.9098C558.645 26.9098 538.779 46.7861 538.779 71.305C538.779 95.8239 558.645 115.7 583.152 115.7C607.658 115.7 627.525 95.8239 627.525 71.305C627.525 46.7861 607.658 26.9098 583.152 26.9098ZM538.379 71.305C538.379 46.5654 558.424 26.5098 583.152 26.5098C607.879 26.5098 627.925 46.5654 627.925 71.305C627.925 96.0446 607.879 116.1 583.152 116.1C558.424 116.1 538.379 96.0446 538.379 71.305Z" fill="url(#paint17_linear_155_13722)"/>
<path opacity="0.05" d="M583.152 141.71C622.016 141.71 653.522 110.189 653.522 71.3051C653.522 32.4217 622.016 0.900391 583.152 0.900391C544.288 0.900391 512.782 32.4217 512.782 71.3051C512.782 110.189 544.288 141.71 583.152 141.71Z" fill="#F18D1E"/>
<path fill-rule="evenodd" clip-rule="evenodd" d="M451.252 70.8047H576.158V71.8047H451.885L425.401 127.867L424.497 127.439L451.252 70.8047Z" fill="#808080"/>
<defs>
<linearGradient id="paint0_linear_155_13722" x1="462.721" y1="408.089" x2="494.762" y2="419.745" gradientUnits="userSpaceOnUse">
<stop stop-color="#FFA90A"/>
<stop offset="0.25" stop-color="#FD9D0D" stop-opacity="0.98"/>
<stop offset="0.73" stop-color="#F87D14" stop-opacity="0.93"/>
<stop offset="1" stop-color="#F66A1A" stop-opacity="0.9"/>
</linearGradient>
<linearGradient id="paint1_linear_155_13722" x1="452.374" y1="404.315" x2="505.12" y2="423.504" gradientUnits="userSpaceOnUse">
<stop stop-color="#FFA90A"/>
<stop offset="0.25" stop-color="#FD9D0D" stop-opacity="0.98"/>
<stop offset="0.73" stop-color="#F87D14" stop-opacity="0.93"/>
<stop offset="1" stop-color="#F66A1A" stop-opacity="0.9"/>
</linearGradient>
<linearGradient id="paint2_linear_155_13722" x1="436.679" y1="398.607" x2="520.81" y2="429.206" gradientUnits="userSpaceOnUse">
<stop stop-color="#FFA90A"/>
<stop offset="0.25" stop-color="#FD9D0D" stop-opacity="0.98"/>
<stop offset="0.73" stop-color="#F87D14" stop-opacity="0.93"/>
<stop offset="1" stop-color="#F66A1A" stop-opacity="0.9"/>
</linearGradient>
<linearGradient id="paint3_linear_155_13722" x1="516.222" y1="257.646" x2="548.264" y2="269.301" gradientUnits="userSpaceOnUse">
<stop stop-color="#FFA90A"/>
<stop offset="0.25" stop-color="#FD9D0D" stop-opacity="0.98"/>
<stop offset="0.73" stop-color="#F87D14" stop-opacity="0.93"/>
<stop offset="1" stop-color="#F66A1A" stop-opacity="0.9"/>
</linearGradient>
<linearGradient id="paint4_linear_155_13722" x1="505.867" y1="253.88" x2="558.613" y2="273.069" gradientUnits="userSpaceOnUse">
<stop stop-color="#FFA90A"/>
<stop offset="0.25" stop-color="#FD9D0D" stop-opacity="0.98"/>
<stop offset="0.73" stop-color="#F87D14" stop-opacity="0.93"/>
<stop offset="1" stop-color="#F66A1A" stop-opacity="0.9"/>
</linearGradient>
<linearGradient id="paint5_linear_155_13722" x1="379.124" y1="435.757" x2="411.157" y2="447.413" gradientUnits="userSpaceOnUse">
<stop stop-color="#FFA90A"/>
<stop offset="0.25" stop-color="#FD9D0D" stop-opacity="0.98"/>
<stop offset="0.73" stop-color="#F87D14" stop-opacity="0.93"/>
<stop offset="1" stop-color="#F66A1A" stop-opacity="0.9"/>
</linearGradient>
<linearGradient id="paint6_linear_155_13722" x1="368.769" y1="431.983" x2="421.515" y2="451.172" gradientUnits="userSpaceOnUse">
<stop stop-color="#FFA90A"/>
<stop offset="0.25" stop-color="#FD9D0D" stop-opacity="0.98"/>
<stop offset="0.73" stop-color="#F87D14" stop-opacity="0.93"/>
<stop offset="1" stop-color="#F66A1A" stop-opacity="0.9"/>
</linearGradient>
<linearGradient id="paint7_linear_155_13722" x1="318.69" y1="438.691" x2="350.723" y2="450.346" gradientUnits="userSpaceOnUse">
<stop stop-color="#FFA90A"/>
<stop offset="0.25" stop-color="#FD9D0D" stop-opacity="0.98"/>
<stop offset="0.73" stop-color="#F87D14" stop-opacity="0.93"/>
<stop offset="1" stop-color="#F66A1A" stop-opacity="0.9"/>
</linearGradient>
<linearGradient id="paint8_linear_155_13722" x1="308.334" y1="434.916" x2="361.081" y2="454.105" gradientUnits="userSpaceOnUse">
<stop stop-color="#FFA90A"/>
<stop offset="0.25" stop-color="#FD9D0D" stop-opacity="0.98"/>
<stop offset="0.73" stop-color="#F87D14" stop-opacity="0.93"/>
<stop offset="1" stop-color="#F66A1A" stop-opacity="0.9"/>
</linearGradient>
<linearGradient id="paint9_linear_155_13722" x1="195.37" y1="462.918" x2="227.403" y2="474.573" gradientUnits="userSpaceOnUse">
<stop stop-color="#FFA90A"/>
<stop offset="0.25" stop-color="#FD9D0D" stop-opacity="0.98"/>
<stop offset="0.73" stop-color="#F87D14" stop-opacity="0.93"/>
<stop offset="1" stop-color="#F66A1A" stop-opacity="0.9"/>
</linearGradient>
<linearGradient id="paint10_linear_155_13722" x1="185.015" y1="459.143" x2="237.761" y2="478.332" gradientUnits="userSpaceOnUse">
<stop stop-color="#FFA90A"/>
<stop offset="0.25" stop-color="#FD9D0D" stop-opacity="0.98"/>
<stop offset="0.73" stop-color="#F87D14" stop-opacity="0.93"/>
<stop offset="1" stop-color="#F66A1A" stop-opacity="0.9"/>
</linearGradient>
<linearGradient id="paint11_linear_155_13722" x1="80.655" y1="545.712" x2="112.697" y2="557.368" gradientUnits="userSpaceOnUse">
<stop stop-color="#FFA90A"/>
<stop offset="0.25" stop-color="#FD9D0D" stop-opacity="0.98"/>
<stop offset="0.73" stop-color="#F87D14" stop-opacity="0.93"/>
<stop offset="1" stop-color="#F66A1A" stop-opacity="0.9"/>
</linearGradient>
<linearGradient id="paint12_linear_155_13722" x1="70.2998" y1="541.946" x2="123.046" y2="561.136" gradientUnits="userSpaceOnUse">
<stop stop-color="#FFA90A"/>
<stop offset="0.25" stop-color="#FD9D0D" stop-opacity="0.98"/>
<stop offset="0.73" stop-color="#F87D14" stop-opacity="0.93"/>
<stop offset="1" stop-color="#F66A1A" stop-opacity="0.9"/>
</linearGradient>
<linearGradient id="paint13_linear_155_13722" x1="19.6343" y1="675.916" x2="51.676" y2="687.571" gradientUnits="userSpaceOnUse">
<stop stop-color="#FFA90A"/>
<stop offset="0.25" stop-color="#FD9D0D" stop-opacity="0.98"/>
<stop offset="0.73" stop-color="#F87D14" stop-opacity="0.93"/>
<stop offset="1" stop-color="#F66A1A" stop-opacity="0.9"/>
</linearGradient>
<linearGradient id="paint14_linear_155_13722" x1="9.2876" y1="672.139" x2="62.0338" y2="691.328" gradientUnits="userSpaceOnUse">
<stop stop-color="#FFA90A"/>
<stop offset="0.25" stop-color="#FD9D0D" stop-opacity="0.98"/>
<stop offset="0.73" stop-color="#F87D14" stop-opacity="0.93"/>
<stop offset="1" stop-color="#F66A1A" stop-opacity="0.9"/>
</linearGradient>
<linearGradient id="paint15_linear_155_13722" x1="567.133" y1="65.4722" x2="599.175" y2="77.1275" gradientUnits="userSpaceOnUse">
<stop stop-color="#FFA90A"/>
<stop offset="0.25" stop-color="#FD9D0D" stop-opacity="0.98"/>
<stop offset="0.73" stop-color="#F87D14" stop-opacity="0.93"/>
<stop offset="1" stop-color="#F66A1A" stop-opacity="0.9"/>
</linearGradient>
<linearGradient id="paint16_linear_155_13722" x1="556.786" y1="61.6994" x2="609.533" y2="80.8886" gradientUnits="userSpaceOnUse">
<stop stop-color="#FFA90A"/>
<stop offset="0.25" stop-color="#FD9D0D" stop-opacity="0.98"/>
<stop offset="0.73" stop-color="#F87D14" stop-opacity="0.93"/>
<stop offset="1" stop-color="#F66A1A" stop-opacity="0.9"/>
</linearGradient>
<linearGradient id="paint17_linear_155_13722" x1="541.1" y1="55.9874" x2="625.222" y2="86.5956" gradientUnits="userSpaceOnUse">
<stop stop-color="#FFA90A"/>
<stop offset="0.25" stop-color="#FD9D0D" stop-opacity="0.98"/>
<stop offset="0.73" stop-color="#F87D14" stop-opacity="0.93"/>
<stop offset="1" stop-color="#F66A1A" stop-opacity="0.9"/>
</linearGradient>
</defs>
</svg>
